<?xml version="1.0" encoding="UTF-8" standalone="no"?>
<!-- Created with Inkscape (http://www.inkscape.org/) -->

<svg
   width="1340mm"
   height="2458.1006mm"
   viewBox="0 0 1340 2458.1006"
   version="1.1"
   id="svg5"
   inkscape:version="1.1.1 (1:1.1+202109281946+c3084ef5ed)"
   sodipodi:docname="big-ideas.svg"
   xmlns:inkscape="http://www.inkscape.org/namespaces/inkscape"
   xmlns:sodipodi="http://sodipodi.sourceforge.net/DTD/sodipodi-0.dtd"
   xmlns:xlink="http://www.w3.org/1999/xlink"
   xmlns="http://www.w3.org/2000/svg"
   xmlns:svg="http://www.w3.org/2000/svg"
   xmlns:rdf="http://www.w3.org/1999/02/22-rdf-syntax-ns#"
   xmlns:cc="http://creativecommons.org/ns#"
   xmlns:dc="http://purl.org/dc/elements/1.1/">
  <title
     id="title109155">Big Ideas</title>
  <sodipodi:namedview
     id="namedview7"
     pagecolor="#ffffff"
     bordercolor="#666666"
     borderopacity="1.0"
     inkscape:pageshadow="2"
     inkscape:pageopacity="1"
     inkscape:pagecheckerboard="0"
     inkscape:document-units="mm"
     showgrid="true"
     inkscape:zoom="1.28"
     inkscape:cx="2689.4531"
     inkscape:cy="8026.9531"
     inkscape:window-width="1920"
     inkscape:window-height="1021"
     inkscape:window-x="0"
     inkscape:window-y="0"
     inkscape:window-maximized="1"
     inkscape:current-layer="layer1"
     inkscape:snap-text-baseline="true"
     inkscape:snap-smooth-nodes="true"
     inkscape:snap-grids="true"
     fit-margin-top="10"
     fit-margin-left="10"
     fit-margin-right="10"
     fit-margin-bottom="10">
    <inkscape:grid
       type="xygrid"
       id="grid13099"
       units="mm"
       spacingx="1"
       spacingy="1"
       originx="489.99997"
       originy="1123.1" />
  </sodipodi:namedview>
  <defs
     id="defs2">
    <linearGradient
       inkscape:collect="always"
       id="linearGradient108904">
      <stop
         style="stop-color:#cccccc;stop-opacity:1;"
         offset="0"
         id="stop108900" />
      <stop
         style="stop-color:#cccccc;stop-opacity:0;"
         offset="1"
         id="stop108902" />
    </linearGradient>
    <linearGradient
       inkscape:collect="always"
       id="linearGradient92113">
      <stop
         style="stop-color:#80e5ff;stop-opacity:1;"
         offset="0"
         id="stop92109" />
      <stop
         style="stop-color:#80e5ff;stop-opacity:0;"
         offset="1"
         id="stop92111" />
    </linearGradient>
    <marker
       style="overflow:visible"
       id="DotL"
       refX="0"
       refY="0"
       orient="auto"
       inkscape:stockid="DotL"
       inkscape:isstock="true">
      <path
         transform="matrix(0.8,0,0,0.8,5.92,0.8)"
         style="fill:context-stroke;fill-rule:evenodd;stroke:context-stroke;stroke-width:1pt"
         d="m -2.5,-1 c 0,2.76 -2.24,5 -5,5 -2.76,0 -5,-2.24 -5,-5 0,-2.76 2.24,-5 5,-5 2.76,0 5,2.24 5,5 z"
         id="path19118" />
    </marker>
    <filter
       style="color-interpolation-filters:sRGB"
       inkscape:label="Drop Shadow"
       id="filter89007"
       x="-0.04848489"
       y="-0.062540785"
       width="1.0969698"
       height="1.1381109">
      <feFlood
         flood-opacity="0.498039"
         flood-color="rgb(0,0,0)"
         result="flood"
         id="feFlood88997" />
      <feComposite
         in="flood"
         in2="SourceGraphic"
         operator="in"
         result="composite1"
         id="feComposite88999" />
      <feGaussianBlur
         in="composite1"
         stdDeviation="4"
         result="blur"
         id="feGaussianBlur89001" />
      <feOffset
         dx="0"
         dy="2"
         result="offset"
         id="feOffset89003" />
      <feComposite
         in="SourceGraphic"
         in2="offset"
         operator="over"
         result="composite2"
         id="feComposite89005" />
    </filter>
    <linearGradient
       inkscape:collect="always"
       xlink:href="#linearGradient92113"
       id="linearGradient92115"
       x1="-25"
       y1="-25"
       x2="-25"
       y2="25"
       gradientUnits="userSpaceOnUse"
       gradientTransform="translate(-870,-470)" />
    <linearGradient
       inkscape:collect="always"
       xlink:href="#linearGradient108904"
       id="linearGradient108906"
       x1="70"
       y1="-949.99988"
       x2="70"
       y2="-889.99988"
       gradientUnits="userSpaceOnUse" />
  </defs>
  <g
     inkscape:label="Calque 1"
     inkscape:groupmode="layer"
     id="layer1"
     transform="translate(489.99997,1123.0999)">
    <rect
       style="fill:url(#linearGradient108906);fill-opacity:1;stroke:none;stroke-width:5.29168;stroke-linecap:butt;stroke-linejoin:round;stroke-miterlimit:4;stroke-dasharray:none;stroke-opacity:1"
       id="rect108419"
       width="1320"
       height="225.00014"
       x="-480"
       y="-1115" />
    <g
       id="g90030"
       transform="matrix(25,0,0,25,-3159.997,-3549.9994)"
       style="stroke-width:0.211667;stroke-miterlimit:4;stroke-dasharray:none">
      <path
         id="path59800"
         style="fill:#917c6f;fill-opacity:1;fill-rule:evenodd;stroke:none;stroke-width:0.8;stroke-linecap:butt;stroke-linejoin:miter;stroke-miterlimit:4;stroke-dasharray:none;stroke-opacity:1"
         d="m 510.23633,385.51172 v 11.33789 h -7.5586 v 11.33984 h 3.7793 v 11.33789 h 11.33789 v 11.33789 h -3.7793 v 11.33985 h 3.7793 v 11.33789 h -3.7793 v 11.33984 h -7.55859 v 11.33789 h 3.7793 v 22.67774 h 3.77929 v 11.33789 h 11.3379 v 11.33789 h -7.5586 v 11.33984 h 3.7793 v 11.33789 h 11.33984 v 11.33789 h -7.56054 v 11.33985 h -7.5586 v 11.33789 h 3.7793 v 11.33789 h 11.33984 v 11.33984 h -3.77929 v 11.33789 h 3.77929 v 11.33789 h -3.77929 v 11.33985 h -7.56055 v 11.33789 h 3.7793 v 22.67773 h 3.78125 v 11.33789 h 15.11721 l -2.2e-4,11.3391 h 11.33859 v 11.33864 h 7.55905 v 11.33789 h 3.77861 v 22.6778 l 37.79595,-9e-5 V 385.51173 Z"
         sodipodi:nodetypes="ccccccccccccccccccccccccccccccccccccccccccccccccccccccccccc"
         transform="scale(0.26458333)" />
      <path
         id="path51469"
         style="fill:#917c6f;fill-rule:evenodd;stroke:none;stroke-width:0.8;stroke-linecap:butt;stroke-linejoin:miter;stroke-miterlimit:4;stroke-dasharray:none;stroke-opacity:1"
         d="m 405.16491,385.51173 v 351.49606 l 37.03982,9e-5 v -22.6778 h 3.77953 v -11.33789 h 7.55905 V 691.6543 h 11.33859 v -11.33985 h 7.55951 v -11.33789 h -3.7793 v -11.33789 h 3.7793 v -11.33984 h -3.7793 v -11.33789 h -3.7793 V 612.2832 h 7.5586 v -11.33789 h -3.7793 v -11.33984 h 3.7793 v -11.33789 h -7.5586 v -11.33789 h 3.7793 v -11.33985 h -3.7793 V 544.25195 H 480 v -11.33789 h -3.7793 V 521.57422 H 480 v -11.33789 h -7.55859 v -11.33789 h -3.7793 v -11.33985 h 3.7793 V 476.2207 h -3.7793 v -11.33789 h -3.7793 v -22.67773 h 7.5586 v -11.33985 h -3.7793 v -11.33789 h 3.7793 v -11.33789 h -7.5586 v -11.33984 h 3.7793 v -11.33789 z"
         sodipodi:nodetypes="ccccccccccccccccccccccccccccccccccccccccccccccccccccccccccc"
         transform="scale(0.26458333)" />
      <path
         style="fill:none;fill-rule:evenodd;stroke:#ffffff;stroke-width:0.211667;stroke-linecap:butt;stroke-linejoin:miter;stroke-miterlimit:4;stroke-dasharray:none;stroke-opacity:1"
         d="m 118,105 h 6"
         id="path47665"
         sodipodi:nodetypes="cc" />
      <path
         style="fill:none;fill-rule:evenodd;stroke:#ffffff;stroke-width:0.211667;stroke-linecap:butt;stroke-linejoin:miter;stroke-miterlimit:4;stroke-dasharray:none;stroke-opacity:1"
         d="m 120,108 v 3"
         id="path47882"
         sodipodi:nodetypes="cc" />
      <path
         style="fill:none;fill-rule:evenodd;stroke:#ffffff;stroke-width:0.211667;stroke-linecap:butt;stroke-linejoin:miter;stroke-miterlimit:4;stroke-dasharray:none;stroke-opacity:1"
         d="m 119,117 v 3"
         id="path47890"
         sodipodi:nodetypes="cc" />
      <path
         style="fill:none;fill-rule:evenodd;stroke:#ffffff;stroke-width:0.211667;stroke-linecap:butt;stroke-linejoin:miter;stroke-miterlimit:4;stroke-dasharray:none;stroke-opacity:1"
         d="m 122,126 v 3"
         id="path48772"
         sodipodi:nodetypes="cc" />
      <path
         style="fill:none;fill-rule:evenodd;stroke:#ffffff;stroke-width:0.211667;stroke-linecap:butt;stroke-linejoin:miter;stroke-miterlimit:4;stroke-dasharray:none;stroke-opacity:1"
         d="m 119,135 v 3"
         id="path48774"
         sodipodi:nodetypes="cc" />
      <path
         style="fill:none;fill-rule:evenodd;stroke:#ffffff;stroke-width:0.211667;stroke-linecap:butt;stroke-linejoin:miter;stroke-miterlimit:4;stroke-dasharray:none;stroke-opacity:1"
         d="m 121,141 v 3"
         id="path48776"
         sodipodi:nodetypes="cc" />
      <path
         style="fill:none;fill-rule:evenodd;stroke:#ffffff;stroke-width:0.211667;stroke-linecap:butt;stroke-linejoin:miter;stroke-miterlimit:4;stroke-dasharray:none;stroke-opacity:1"
         d="m 116,108 h 9"
         id="path53683"
         sodipodi:nodetypes="cc" />
      <path
         style="fill:none;fill-rule:evenodd;stroke:#ffffff;stroke-width:0.211667;stroke-linecap:butt;stroke-linejoin:miter;stroke-miterlimit:4;stroke-dasharray:none;stroke-opacity:1"
         d="m 115,111 h 10"
         id="path53822"
         sodipodi:nodetypes="cc" />
      <path
         style="fill:none;fill-rule:evenodd;stroke:#ffffff;stroke-width:0.211667;stroke-linecap:butt;stroke-linejoin:miter;stroke-miterlimit:4;stroke-dasharray:none;stroke-opacity:1"
         d="m 117,114 h 8"
         id="path53999"
         sodipodi:nodetypes="cc" />
      <path
         style="fill:none;fill-rule:evenodd;stroke:#ffffff;stroke-width:0.211667;stroke-linecap:butt;stroke-linejoin:miter;stroke-miterlimit:4;stroke-dasharray:none;stroke-opacity:1"
         d="m 116,117 h 9"
         id="path54549"
         sodipodi:nodetypes="cc" />
      <path
         style="fill:none;fill-rule:evenodd;stroke:#ffffff;stroke-width:0.211667;stroke-linecap:butt;stroke-linejoin:miter;stroke-miterlimit:4;stroke-dasharray:none;stroke-opacity:1"
         d="m 117,120 v 3"
         id="path55019"
         sodipodi:nodetypes="cc" />
      <path
         style="fill:none;fill-rule:evenodd;stroke:#ffffff;stroke-width:0.211667;stroke-linecap:butt;stroke-linejoin:miter;stroke-miterlimit:4;stroke-dasharray:none;stroke-opacity:1"
         d="m 114,120 h 9"
         id="path55021"
         sodipodi:nodetypes="cc" />
      <path
         style="fill:none;fill-rule:evenodd;stroke:#ffffff;stroke-width:0.211667;stroke-linecap:butt;stroke-linejoin:miter;stroke-miterlimit:4;stroke-dasharray:none;stroke-opacity:1"
         d="m 115,123 h 9"
         id="path55339"
         sodipodi:nodetypes="cc" />
      <path
         style="fill:none;fill-rule:evenodd;stroke:#ffffff;stroke-width:0.211667;stroke-linecap:butt;stroke-linejoin:miter;stroke-miterlimit:4;stroke-dasharray:none;stroke-opacity:1"
         d="m 115,126 h 10"
         id="path55558"
         sodipodi:nodetypes="cc" />
      <path
         style="fill:none;fill-rule:evenodd;stroke:#ffffff;stroke-width:0.211667;stroke-linecap:butt;stroke-linejoin:miter;stroke-miterlimit:4;stroke-dasharray:none;stroke-opacity:1"
         d="m 116,129 h 9"
         id="path55777"
         sodipodi:nodetypes="cc" />
      <path
         style="fill:none;fill-rule:evenodd;stroke:#ffffff;stroke-width:0.211667;stroke-linecap:butt;stroke-linejoin:miter;stroke-miterlimit:4;stroke-dasharray:none;stroke-opacity:1"
         d="m 118,132 h 7"
         id="path56053"
         sodipodi:nodetypes="cc" />
      <path
         style="fill:none;fill-rule:evenodd;stroke:#ffffff;stroke-width:0.211667;stroke-linecap:butt;stroke-linejoin:miter;stroke-miterlimit:4;stroke-dasharray:none;stroke-opacity:1"
         d="m 117,135 h 10"
         id="path56135"
         sodipodi:nodetypes="cc" />
      <path
         style="fill:none;fill-rule:evenodd;stroke:#ffffff;stroke-width:0.211667;stroke-linecap:butt;stroke-linejoin:miter;stroke-miterlimit:4;stroke-dasharray:none;stroke-opacity:1"
         d="m 115,138 h 12"
         id="path56524"
         sodipodi:nodetypes="cc" />
      <path
         style="fill:none;fill-rule:evenodd;stroke:#ffffff;stroke-width:0.211667;stroke-linecap:butt;stroke-linejoin:miter;stroke-miterlimit:4;stroke-dasharray:none;stroke-opacity:1"
         d="m 116,141 h 11"
         id="path56606"
         sodipodi:nodetypes="cc" />
      <path
         style="fill:none;fill-rule:evenodd;stroke:#ffffff;stroke-width:0.211667;stroke-linecap:butt;stroke-linejoin:miter;stroke-miterlimit:4;stroke-dasharray:none;stroke-opacity:1"
         d="m 114,144 h 13"
         id="path56954"
         sodipodi:nodetypes="cc" />
      <path
         style="fill:none;fill-rule:evenodd;stroke:#ffffff;stroke-width:0.211667;stroke-linecap:butt;stroke-linejoin:miter;stroke-miterlimit:4;stroke-dasharray:none;stroke-opacity:1"
         d="m 138,105 v 3"
         id="path58048" />
      <path
         style="fill:none;fill-rule:evenodd;stroke:#ffffff;stroke-width:0.211667;stroke-linecap:butt;stroke-linejoin:miter;stroke-miterlimit:4;stroke-dasharray:none;stroke-opacity:1"
         d="m 141,114 v 3"
         id="path58163" />
      <path
         style="fill:none;fill-rule:evenodd;stroke:#ffffff;stroke-width:0.211667;stroke-linecap:butt;stroke-linejoin:miter;stroke-miterlimit:4;stroke-dasharray:none;stroke-opacity:1"
         d="m 140,126 v 3"
         id="path58165" />
      <path
         style="fill:none;fill-rule:evenodd;stroke:#ffffff;stroke-width:0.211667;stroke-linecap:butt;stroke-linejoin:miter;stroke-miterlimit:4;stroke-dasharray:none;stroke-opacity:1"
         d="m 141,132 v 3"
         id="path58167" />
      <path
         style="fill:none;fill-rule:evenodd;stroke:#ffffff;stroke-width:0.211667;stroke-linecap:butt;stroke-linejoin:miter;stroke-miterlimit:4;stroke-dasharray:none;stroke-opacity:1"
         d="m 143,141 v 3"
         id="path58169" />
      <path
         style="fill:none;fill-rule:evenodd;stroke:#ffffff;stroke-width:0.211667;stroke-linecap:butt;stroke-linejoin:miter;stroke-miterlimit:4;stroke-dasharray:none;stroke-opacity:1"
         d="m 133,105 h 10"
         id="path58171"
         sodipodi:nodetypes="cc" />
      <path
         style="fill:none;fill-rule:evenodd;stroke:#ffffff;stroke-width:0.211667;stroke-linecap:butt;stroke-linejoin:miter;stroke-miterlimit:4;stroke-dasharray:none;stroke-opacity:1"
         d="m 133,108 h 10"
         id="path58386"
         sodipodi:nodetypes="cc" />
      <path
         style="fill:none;fill-rule:evenodd;stroke:#ffffff;stroke-width:0.211667;stroke-linecap:butt;stroke-linejoin:miter;stroke-miterlimit:4;stroke-dasharray:none;stroke-opacity:1"
         d="m 134,111 h 8"
         id="path58388"
         sodipodi:nodetypes="cc" />
      <path
         style="fill:none;fill-rule:evenodd;stroke:#ffffff;stroke-width:0.211667;stroke-linecap:butt;stroke-linejoin:miter;stroke-miterlimit:4;stroke-dasharray:none;stroke-opacity:1"
         d="m 136,114 h 10"
         id="path58527"
         sodipodi:nodetypes="cc" />
      <path
         style="fill:none;fill-rule:evenodd;stroke:#ffffff;stroke-width:0.211667;stroke-linecap:butt;stroke-linejoin:miter;stroke-miterlimit:4;stroke-dasharray:none;stroke-opacity:1"
         d="m 136,117 h 10"
         id="path58666"
         sodipodi:nodetypes="cc" />
      <path
         style="fill:none;fill-rule:evenodd;stroke:#ffffff;stroke-width:0.211667;stroke-linecap:butt;stroke-linejoin:miter;stroke-miterlimit:4;stroke-dasharray:none;stroke-opacity:1"
         d="m 136,120 h 6"
         id="path58668"
         sodipodi:nodetypes="cc" />
      <path
         style="fill:none;fill-rule:evenodd;stroke:#ffffff;stroke-width:0.211667;stroke-linecap:butt;stroke-linejoin:miter;stroke-miterlimit:4;stroke-dasharray:none;stroke-opacity:1"
         d="m 134,123 h 7"
         id="path58769"
         sodipodi:nodetypes="cc" />
      <path
         style="fill:none;fill-rule:evenodd;stroke:#ffffff;stroke-width:0.211667;stroke-linecap:butt;stroke-linejoin:miter;stroke-miterlimit:4;stroke-dasharray:none;stroke-opacity:1"
         d="m 134,126 h 11"
         id="path58889"
         sodipodi:nodetypes="cc" />
      <path
         style="fill:none;fill-rule:evenodd;stroke:#ffffff;stroke-width:0.211667;stroke-linecap:butt;stroke-linejoin:miter;stroke-miterlimit:4;stroke-dasharray:none;stroke-opacity:1"
         d="m 135,129 h 10"
         id="path58990"
         sodipodi:nodetypes="cc" />
      <path
         style="fill:none;fill-rule:evenodd;stroke:#ffffff;stroke-width:0.211667;stroke-linecap:butt;stroke-linejoin:miter;stroke-miterlimit:4;stroke-dasharray:none;stroke-opacity:1"
         d="m 135,132 h 11"
         id="path59091"
         sodipodi:nodetypes="cc" />
      <path
         style="fill:none;fill-rule:evenodd;stroke:#ffffff;stroke-width:0.211667;stroke-linecap:butt;stroke-linejoin:miter;stroke-miterlimit:4;stroke-dasharray:none;stroke-opacity:1"
         d="m 136,135 h 10"
         id="path59230"
         sodipodi:nodetypes="cc" />
      <path
         style="fill:none;fill-rule:evenodd;stroke:#ffffff;stroke-width:0.211667;stroke-linecap:butt;stroke-linejoin:miter;stroke-miterlimit:4;stroke-dasharray:none;stroke-opacity:1"
         d="m 137,138 h 7"
         id="path59331"
         sodipodi:nodetypes="cc" />
      <path
         style="fill:none;fill-rule:evenodd;stroke:#ffffff;stroke-width:0.211667;stroke-linecap:butt;stroke-linejoin:miter;stroke-miterlimit:4;stroke-dasharray:none;stroke-opacity:1"
         d="m 137,141 h 11"
         id="path59489"
         sodipodi:nodetypes="cc" />
      <path
         style="fill:none;fill-rule:evenodd;stroke:#ffffff;stroke-width:0.211667;stroke-linecap:butt;stroke-linejoin:miter;stroke-miterlimit:4;stroke-dasharray:none;stroke-opacity:1"
         d="m 138,144 h 10"
         id="path59628"
         sodipodi:nodetypes="cc" />
      <path
         style="fill:none;fill-rule:evenodd;stroke:#ffffff;stroke-width:0.211667;stroke-linecap:butt;stroke-linejoin:miter;stroke-miterlimit:4;stroke-dasharray:none;stroke-opacity:1"
         d="m 118,150 h 6"
         id="path62738"
         sodipodi:nodetypes="cc" />
      <path
         style="fill:none;fill-rule:evenodd;stroke:#ffffff;stroke-width:0.211667;stroke-linecap:butt;stroke-linejoin:miter;stroke-miterlimit:4;stroke-dasharray:none;stroke-opacity:1"
         d="m 120,153 v 3"
         id="path62740"
         sodipodi:nodetypes="cc" />
      <path
         style="fill:none;fill-rule:evenodd;stroke:#ffffff;stroke-width:0.211667;stroke-linecap:butt;stroke-linejoin:miter;stroke-miterlimit:4;stroke-dasharray:none;stroke-opacity:1"
         d="m 119,162 v 3"
         id="path62742"
         sodipodi:nodetypes="cc" />
      <path
         style="fill:none;fill-rule:evenodd;stroke:#ffffff;stroke-width:0.211667;stroke-linecap:butt;stroke-linejoin:miter;stroke-miterlimit:4;stroke-dasharray:none;stroke-opacity:1"
         d="m 122,171 v 3"
         id="path62744"
         sodipodi:nodetypes="cc" />
      <path
         style="fill:none;fill-rule:evenodd;stroke:#ffffff;stroke-width:0.211667;stroke-linecap:butt;stroke-linejoin:miter;stroke-miterlimit:4;stroke-dasharray:none;stroke-opacity:1"
         d="m 119,180 v 3"
         id="path62746"
         sodipodi:nodetypes="cc" />
      <path
         style="fill:none;fill-rule:evenodd;stroke:#ffffff;stroke-width:0.211667;stroke-linecap:butt;stroke-linejoin:miter;stroke-miterlimit:4;stroke-dasharray:none;stroke-opacity:1"
         d="m 121,186 v 3"
         id="path62748"
         sodipodi:nodetypes="cc" />
      <path
         style="fill:none;fill-rule:evenodd;stroke:#ffffff;stroke-width:0.211667;stroke-linecap:butt;stroke-linejoin:miter;stroke-miterlimit:4;stroke-dasharray:none;stroke-opacity:1"
         d="m 116,153 h 9"
         id="path62750"
         sodipodi:nodetypes="cc" />
      <path
         style="fill:none;fill-rule:evenodd;stroke:#ffffff;stroke-width:0.211667;stroke-linecap:butt;stroke-linejoin:miter;stroke-miterlimit:4;stroke-dasharray:none;stroke-opacity:1"
         d="m 115,156 h 10"
         id="path62752"
         sodipodi:nodetypes="cc" />
      <path
         style="fill:none;fill-rule:evenodd;stroke:#ffffff;stroke-width:0.211667;stroke-linecap:butt;stroke-linejoin:miter;stroke-miterlimit:4;stroke-dasharray:none;stroke-opacity:1"
         d="m 117,159 h 8"
         id="path62754"
         sodipodi:nodetypes="cc" />
      <path
         style="fill:none;fill-rule:evenodd;stroke:#ffffff;stroke-width:0.211667;stroke-linecap:butt;stroke-linejoin:miter;stroke-miterlimit:4;stroke-dasharray:none;stroke-opacity:1"
         d="m 116,162 h 9"
         id="path62756"
         sodipodi:nodetypes="cc" />
      <path
         style="fill:none;fill-rule:evenodd;stroke:#ffffff;stroke-width:0.211667;stroke-linecap:butt;stroke-linejoin:miter;stroke-miterlimit:4;stroke-dasharray:none;stroke-opacity:1"
         d="m 117,165 v 3"
         id="path62758"
         sodipodi:nodetypes="cc" />
      <path
         style="fill:none;fill-rule:evenodd;stroke:#ffffff;stroke-width:0.211667;stroke-linecap:butt;stroke-linejoin:miter;stroke-miterlimit:4;stroke-dasharray:none;stroke-opacity:1"
         d="m 114,165 h 9"
         id="path62760"
         sodipodi:nodetypes="cc" />
      <path
         style="fill:none;fill-rule:evenodd;stroke:#ffffff;stroke-width:0.211667;stroke-linecap:butt;stroke-linejoin:miter;stroke-miterlimit:4;stroke-dasharray:none;stroke-opacity:1"
         d="m 115,168 h 9"
         id="path62762"
         sodipodi:nodetypes="cc" />
      <path
         style="fill:none;fill-rule:evenodd;stroke:#ffffff;stroke-width:0.211667;stroke-linecap:butt;stroke-linejoin:miter;stroke-miterlimit:4;stroke-dasharray:none;stroke-opacity:1"
         d="m 115,171 h 10"
         id="path62764"
         sodipodi:nodetypes="cc" />
      <path
         style="fill:none;fill-rule:evenodd;stroke:#ffffff;stroke-width:0.211667;stroke-linecap:butt;stroke-linejoin:miter;stroke-miterlimit:4;stroke-dasharray:none;stroke-opacity:1"
         d="m 116,174 h 9"
         id="path62766"
         sodipodi:nodetypes="cc" />
      <path
         style="fill:none;fill-rule:evenodd;stroke:#ffffff;stroke-width:0.211667;stroke-linecap:butt;stroke-linejoin:miter;stroke-miterlimit:4;stroke-dasharray:none;stroke-opacity:1"
         d="m 118,177 h 7"
         id="path62768"
         sodipodi:nodetypes="cc" />
      <path
         style="fill:none;fill-rule:evenodd;stroke:#ffffff;stroke-width:0.211667;stroke-linecap:butt;stroke-linejoin:miter;stroke-miterlimit:4;stroke-dasharray:none;stroke-opacity:1"
         d="m 117,180 h 10"
         id="path62770"
         sodipodi:nodetypes="cc" />
      <path
         style="fill:none;fill-rule:evenodd;stroke:#ffffff;stroke-width:0.211667;stroke-linecap:butt;stroke-linejoin:miter;stroke-miterlimit:4;stroke-dasharray:none;stroke-opacity:1"
         d="m 115,183 h 8"
         id="path62772"
         sodipodi:nodetypes="cc" />
      <path
         style="fill:none;fill-rule:evenodd;stroke:#ffffff;stroke-width:0.211667;stroke-linecap:butt;stroke-linejoin:miter;stroke-miterlimit:4;stroke-dasharray:none;stroke-opacity:1"
         d="m 116,186 h 4"
         id="path62774"
         sodipodi:nodetypes="cc" />
      <path
         style="fill:none;fill-rule:evenodd;stroke:#ffffff;stroke-width:0.211667;stroke-linecap:butt;stroke-linejoin:miter;stroke-miterlimit:4;stroke-dasharray:none;stroke-opacity:1"
         d="m 114,189 h 4"
         id="path62776"
         sodipodi:nodetypes="cc" />
      <path
         style="fill:none;fill-rule:evenodd;stroke:#ffffff;stroke-width:0.211667;stroke-linecap:butt;stroke-linejoin:miter;stroke-miterlimit:4;stroke-dasharray:none;stroke-opacity:1"
         d="m 142,150 v 3"
         id="path62778" />
      <path
         style="fill:none;fill-rule:evenodd;stroke:#ffffff;stroke-width:0.211667;stroke-linecap:butt;stroke-linejoin:miter;stroke-miterlimit:4;stroke-dasharray:none;stroke-opacity:1"
         d="m 145,159 v 3"
         id="path62780" />
      <path
         style="fill:none;fill-rule:evenodd;stroke:#ffffff;stroke-width:0.211667;stroke-linecap:butt;stroke-linejoin:miter;stroke-miterlimit:4;stroke-dasharray:none;stroke-opacity:1"
         d="m 144,171 v 3"
         id="path62782" />
      <path
         style="fill:none;fill-rule:evenodd;stroke:#ffffff;stroke-width:0.211667;stroke-linecap:butt;stroke-linejoin:miter;stroke-miterlimit:4;stroke-dasharray:none;stroke-opacity:1"
         d="m 145,177 v 3"
         id="path62784" />
      <path
         style="fill:none;fill-rule:evenodd;stroke:#ffffff;stroke-width:0.211667;stroke-linecap:butt;stroke-linejoin:miter;stroke-miterlimit:4;stroke-dasharray:none;stroke-opacity:1"
         d="m 152,186 v 3"
         id="path62786" />
      <path
         style="fill:none;fill-rule:evenodd;stroke:#ffffff;stroke-width:0.211667;stroke-linecap:butt;stroke-linejoin:miter;stroke-miterlimit:4;stroke-dasharray:none;stroke-opacity:1"
         d="m 137,150 h 10"
         id="path62788"
         sodipodi:nodetypes="cc" />
      <path
         style="fill:none;fill-rule:evenodd;stroke:#ffffff;stroke-width:0.211667;stroke-linecap:butt;stroke-linejoin:miter;stroke-miterlimit:4;stroke-dasharray:none;stroke-opacity:1"
         d="m 137,153 h 10"
         id="path62790"
         sodipodi:nodetypes="cc" />
      <path
         style="fill:none;fill-rule:evenodd;stroke:#ffffff;stroke-width:0.211667;stroke-linecap:butt;stroke-linejoin:miter;stroke-miterlimit:4;stroke-dasharray:none;stroke-opacity:1"
         d="m 138,156 h 8"
         id="path62792"
         sodipodi:nodetypes="cc" />
      <path
         style="fill:none;fill-rule:evenodd;stroke:#ffffff;stroke-width:0.211667;stroke-linecap:butt;stroke-linejoin:miter;stroke-miterlimit:4;stroke-dasharray:none;stroke-opacity:1"
         d="m 140,159 h 10"
         id="path62794"
         sodipodi:nodetypes="cc" />
      <path
         style="fill:none;fill-rule:evenodd;stroke:#ffffff;stroke-width:0.211667;stroke-linecap:butt;stroke-linejoin:miter;stroke-miterlimit:4;stroke-dasharray:none;stroke-opacity:1"
         d="m 140,162 h 10"
         id="path62796"
         sodipodi:nodetypes="cc" />
      <path
         style="fill:none;fill-rule:evenodd;stroke:#ffffff;stroke-width:0.211667;stroke-linecap:butt;stroke-linejoin:miter;stroke-miterlimit:4;stroke-dasharray:none;stroke-opacity:1"
         d="m 140,165 h 6"
         id="path62798"
         sodipodi:nodetypes="cc" />
      <path
         style="fill:none;fill-rule:evenodd;stroke:#ffffff;stroke-width:0.211667;stroke-linecap:butt;stroke-linejoin:miter;stroke-miterlimit:4;stroke-dasharray:none;stroke-opacity:1"
         d="m 138,168 h 7"
         id="path62800"
         sodipodi:nodetypes="cc" />
      <path
         style="fill:none;fill-rule:evenodd;stroke:#ffffff;stroke-width:0.211667;stroke-linecap:butt;stroke-linejoin:miter;stroke-miterlimit:4;stroke-dasharray:none;stroke-opacity:1"
         d="m 138,171 h 11"
         id="path62802"
         sodipodi:nodetypes="cc" />
      <path
         style="fill:none;fill-rule:evenodd;stroke:#ffffff;stroke-width:0.211667;stroke-linecap:butt;stroke-linejoin:miter;stroke-miterlimit:4;stroke-dasharray:none;stroke-opacity:1"
         d="m 139,174 h 10"
         id="path62804"
         sodipodi:nodetypes="cc" />
      <path
         style="fill:none;fill-rule:evenodd;stroke:#ffffff;stroke-width:0.211667;stroke-linecap:butt;stroke-linejoin:miter;stroke-miterlimit:4;stroke-dasharray:none;stroke-opacity:1"
         d="m 139,177 h 11"
         id="path62806"
         sodipodi:nodetypes="cc" />
      <path
         style="fill:none;fill-rule:evenodd;stroke:#ffffff;stroke-width:0.211667;stroke-linecap:butt;stroke-linejoin:miter;stroke-miterlimit:4;stroke-dasharray:none;stroke-opacity:1"
         d="m 140,180 h 10"
         id="path62808"
         sodipodi:nodetypes="cc" />
      <path
         style="fill:none;fill-rule:evenodd;stroke:#ffffff;stroke-width:0.211667;stroke-linecap:butt;stroke-linejoin:miter;stroke-miterlimit:4;stroke-dasharray:none;stroke-opacity:1"
         d="m 144,183 h 7"
         id="path62810"
         sodipodi:nodetypes="cc" />
      <path
         style="fill:none;fill-rule:evenodd;stroke:#ffffff;stroke-width:0.211667;stroke-linecap:butt;stroke-linejoin:miter;stroke-miterlimit:4;stroke-dasharray:none;stroke-opacity:1"
         d="m 147,186 h 8"
         id="path62812"
         sodipodi:nodetypes="cc" />
      <path
         style="fill:none;fill-rule:evenodd;stroke:#ffffff;stroke-width:0.211667;stroke-linecap:butt;stroke-linejoin:miter;stroke-miterlimit:4;stroke-dasharray:none;stroke-opacity:1"
         d="m 149,189 h 6"
         id="path62814"
         sodipodi:nodetypes="cc" />
      <path
         style="fill:none;fill-rule:evenodd;stroke:#ffffff;stroke-width:0.211667;stroke-linecap:butt;stroke-linejoin:miter;stroke-miterlimit:4;stroke-dasharray:none;stroke-opacity:1"
         d="m 139,147 h 10"
         id="path62953"
         sodipodi:nodetypes="cc" />
      <path
         style="fill:none;fill-rule:evenodd;stroke:#ffffff;stroke-width:0.211667;stroke-linecap:butt;stroke-linejoin:miter;stroke-miterlimit:4;stroke-dasharray:none;stroke-opacity:1"
         d="m 115,147 h 9"
         id="path64359"
         sodipodi:nodetypes="cc" />
      <path
         style="fill:none;fill-rule:evenodd;stroke:#ffffff;stroke-width:0.211667;stroke-linecap:butt;stroke-linejoin:miter;stroke-miterlimit:4;stroke-dasharray:none;stroke-opacity:1"
         d="m 150,192 h 4"
         id="path66792"
         sodipodi:nodetypes="cc" />
      <path
         style="fill:none;fill-rule:evenodd;stroke:#ffffff;stroke-width:0.211667;stroke-linecap:butt;stroke-linejoin:miter;stroke-miterlimit:4;stroke-dasharray:none;stroke-opacity:1"
         d="m 115,192 h 2"
         id="path66893"
         sodipodi:nodetypes="cc" />
    </g>
    <g
       id="g79457"
       transform="translate(261.54588,949.43049)">
      <path
         style="fill:#ffe680;fill-rule:evenodd;stroke:#000000;stroke-width:0.529167;stroke-linecap:butt;stroke-linejoin:miter;stroke-miterlimit:4;stroke-dasharray:none;stroke-opacity:1"
         d="M 44.999999,39.999999 C 35,40 30,49 30,55 30,66 40,68 39.999999,76 H 50 C 50,68 60,66 59.999998,55 60,49 55,40 44.999999,39.999999 Z"
         id="path13134"
         sodipodi:nodetypes="cccccc" />
      <path
         style="fill:none;fill-rule:evenodd;stroke:#000000;stroke-width:0.529167;stroke-linecap:butt;stroke-linejoin:miter;stroke-miterlimit:4;stroke-dasharray:none;stroke-opacity:1"
         d="M 39.999999,79.999998 50,77.999996"
         id="path15559"
         sodipodi:nodetypes="cc" />
      <path
         style="fill:none;fill-rule:evenodd;stroke:#000000;stroke-width:0.529167;stroke-linecap:butt;stroke-linejoin:miter;stroke-miterlimit:4;stroke-dasharray:none;stroke-opacity:1"
         d="M 39.999999,81.999998 50,79.999996"
         id="path15641"
         sodipodi:nodetypes="cc" />
      <path
         style="fill:none;fill-rule:evenodd;stroke:#000000;stroke-width:0.529166;stroke-linecap:butt;stroke-linejoin:miter;stroke-miterlimit:4;stroke-dasharray:none;stroke-opacity:1"
         d="M 40.999999,83.8 49,82.199999"
         id="path15643"
         sodipodi:nodetypes="cc" />
      <path
         style="fill:none;fill-rule:evenodd;stroke:#000000;stroke-width:0.529166;stroke-linecap:butt;stroke-linejoin:miter;stroke-miterlimit:4;stroke-dasharray:none;stroke-opacity:1"
         d="M 41.999999,85.6 48,84.399998"
         id="path15645"
         sodipodi:nodetypes="cc" />
      <path
         style="fill:none;fill-rule:evenodd;stroke:#000000;stroke-width:0.529167;stroke-linecap:butt;stroke-linejoin:miter;stroke-miterlimit:4;stroke-dasharray:none;stroke-opacity:1"
         d="M 39.999999,78 45,76.999998"
         id="path15647"
         sodipodi:nodetypes="cc" />
      <path
         style="fill:none;fill-rule:evenodd;stroke:#000000;stroke-width:0.529167;stroke-linecap:butt;stroke-linejoin:miter;stroke-miterlimit:4;stroke-dasharray:none;stroke-opacity:1"
         d="M 40,77 H 50"
         id="path16432"
         sodipodi:nodetypes="cc" />
      <ellipse
         style="fill:#ffffff;stroke:none;stroke-width:0.529167;stroke-linecap:round;stroke-miterlimit:4;stroke-dasharray:none"
         id="path18169"
         cx="43.454124"
         cy="54.074276"
         rx="10.330017"
         ry="11.495334" />
      <path
         style="fill:none;fill-rule:evenodd;stroke:#000000;stroke-width:0.529167;stroke-linecap:round;stroke-linejoin:miter;stroke-miterlimit:4;stroke-dasharray:none;stroke-opacity:1"
         d="m 43,76 c 0,0 0,-19 -4,-22"
         id="path16721"
         sodipodi:nodetypes="cc" />
      <path
         style="fill:none;fill-rule:evenodd;stroke:#000000;stroke-width:0.529167;stroke-linecap:round;stroke-linejoin:miter;stroke-miterlimit:4;stroke-dasharray:none;stroke-opacity:1"
         d="m 47,76 c 0,0 0,-19 4,-22"
         id="path16936"
         sodipodi:nodetypes="cc" />
      <path
         style="fill:none;fill-rule:evenodd;stroke:#000000;stroke-width:0.264583px;stroke-linecap:butt;stroke-linejoin:miter;stroke-opacity:1"
         d="m 38.999998,54 c 1.617322,-0.539107 2.84148,0.75244 5.042842,0.0046 C 47,53 49.156428,54.460893 51.000001,54"
         id="path17260"
         sodipodi:nodetypes="csc" />
      <path
         style="fill:none;fill-rule:evenodd;stroke:#000000;stroke-width:0.529166;stroke-linecap:butt;stroke-linejoin:miter;stroke-miterlimit:4;stroke-dasharray:none;stroke-opacity:1"
         d="m 44,87 h 2"
         id="path18479"
         sodipodi:nodetypes="cc" />
    </g>
    <path
       style="fill:#000000;stroke-width:0.999999"
       d="m 157.26855,1323.8995 c -6.12936,-5.0188 4.68062,-13.7212 -6.49344,-15.6578 -11.46866,-8.7114 -2.79711,-24.5257 5.58816,-32.1964 8.89739,-10.2584 20.95367,-16.823 30.86808,-26.0762 9.50324,-7.8223 16.53674,-17.5194 25.46375,-25.925 2.62603,-14.4431 20.40763,-8.7491 26.1327,-21.3363 0.43338,-8.2826 1.49122,-17.0634 -2.39507,-24.7956 -4.06248,-13.753 -17.68695,-19.776 -29.26136,-26.2746 -1.40853,-9.6398 12.82042,-19.3718 14.94775,-30.539 10.75437,-7.9225 12.72462,-23.6687 3.77505,-33.8281 -7.28838,-7.5115 4.26265,-14.6795 7.38619,-22.5193 9.15743,-5.4629 14.63213,-13.2454 12.01667,-24.7512 -3.72631,-13.8543 -15.08005,-25.3269 -30.13101,-24.6803 -14.63156,-2.2042 -22.44858,15.1066 -36.98774,14.3538 -11.20117,6.5022 -24.62605,5.446 -36.76359,2.4664 -10.23375,-6.0016 -19.40343,0 -26.18742,6.3686 -12.15807,5.9369 -20.79258,16.4206 -30.38962,25.3151 -6.61836,6.4973 -12.21082,13.4 -17.24673,21.4736 -6.3281,10.1451 -13.343048,22.3662 -15.179256,32.3343 -1.836207,9.9682 0.171164,16.4321 -6.133343,25.8933 -6.304421,9.4616 -6.567607,25.4625 -4.394367,37.9647 3.006936,8.9701 4.027967,18.2476 -4.211324,19.0894 V 1325 h 119.59678 l -2.9e-4,-0.7465 z m 63.67099,-122.5493 c -7.51708,-13.7575 12.41041,4.8327 0,0 z M 120,1153.3192 c 10.01021,-5.0361 21.57921,-12.4079 27.19248,-20.5274 1.06637,7.1738 10.60471,23.3164 -4.57913,19.0571 -7.5949,-0.972 -15.51883,1.9758 -22.61335,1.4712 z m 71.18518,-33.6002 c 2.38368,-6.1551 2.73436,-15.6727 6.94569,-20.767 5.13086,2.7258 17.60171,4.1738 8.23671,11.6732 -2.7258,2.4748 -13.77559,16.6505 -15.1824,9.0938 z m 0.0286,-33.7611 c -5.78494,-6.5581 -11.12907,-12.1121 1.04356,-10.7044 4.59052,3.0999 9.81374,17.4711 -1.04356,10.7044 z"
       id="path70661"
       sodipodi:nodetypes="cccccccccccccccccszzccccccccsccssccccccc" />
    <g
       aria-label="Bright Idea"
       id="text73520"
       style="font-size:11.2889px;line-height:125%;font-family:'Liberation Serif';-inkscape-font-specification:'Liberation Serif';text-align:center;letter-spacing:0px;word-spacing:0px;text-anchor:middle;stroke-width:0.264583px">
      <path
         d="m 285.32051,977.83471 q 0,-0.678 -0.42444,-0.98668 -0.42443,-0.30868 -1.37804,-0.30868 h -1.14101 v 2.79466 h 1.20716 q 0.89297,0 1.31189,-0.35278 0.42444,-0.35277 0.42444,-1.14652 z m 0.55673,3.4947 q 0,-0.77721 -0.51815,-1.1355 -0.51814,-0.3638 -1.65916,-0.3638 h -1.32291 v 3.10885 q 0.76067,0.0331 1.62057,0.0331 0.94258,0 1.41111,-0.39688 0.46854,-0.40239 0.46854,-1.24575 z m -5.51216,2.10565 v -0.29215 l 0.94809,-0.14882 v -6.51538 l -0.94809,-0.14331 v -0.29215 h 3.37895 q 1.4056,0 2.05604,0.41893 0.65043,0.41341 0.65043,1.3174 0,0.65044 -0.40239,1.10795 -0.39687,0.45751 -1.11897,0.61185 0.99771,0.10473 1.54341,0.58429 0.5457,0.47404 0.5457,1.2237 0,1.06384 -0.73863,1.61506 -0.73311,0.5457 -2.14423,0.5457 l -2.3592,-0.0331 z"
         id="path150" />
      <path
         d="m 291.22954,978.11583 v 1.40008 h -0.23702 l -0.31971,-0.60633 q -0.2756,0 -0.65594,0.0772 -0.37483,0.0716 -0.65044,0.19292 v 3.86954 l 0.88746,0.1378 v 0.24805 h -2.45842 v -0.24805 l 0.65594,-0.1378 v -4.40973 l -0.65594,-0.1378 v -0.24805 h 1.51033 l 0.0496,0.64492 q 0.33073,-0.27561 0.89297,-0.52916 0.56775,-0.25356 0.89848,-0.25356 z"
         id="path152" />
      <path
         d="m 293.41787,976.5614 q 0,0.24253 -0.17639,0.41892 -0.17639,0.17639 -0.42444,0.17639 -0.24253,0 -0.41892,-0.17639 -0.17639,-0.17639 -0.17639,-0.41892 0,-0.24805 0.17639,-0.42444 0.17639,-0.17639 0.41892,-0.17639 0.24805,0 0.42444,0.17639 0.17639,0.17639 0.17639,0.42444 z m -0.0551,6.48781 0.88745,0.1378 v 0.24805 h -2.68442 v -0.24805 l 0.88195,-0.1378 v -4.40973 l -0.73312,-0.1378 v -0.24805 h 1.64814 z"
         id="path154" />
      <path
         d="m 299.26076,979.89074 q 0,0.89297 -0.53468,1.35048 -0.53468,0.45751 -1.53789,0.45751 -0.452,0 -0.83785,-0.0827 l -0.34727,0.72209 q 0.0165,0.0937 0.21498,0.17639 0.19843,0.0827 0.49609,0.0827 h 1.53238 q 0.83785,0 1.24024,0.3638 0.4079,0.36381 0.4079,1.00322 0,0.57877 -0.32522,1.00872 -0.31971,0.42995 -0.94258,0.66146 -0.62288,0.23702 -1.51033,0.23702 -1.05834,0 -1.61507,-0.32521 -0.55121,-0.32522 -0.55121,-0.92605 0,-0.29214 0.19844,-0.57877 0.19843,-0.28112 0.7276,-0.66146 -0.31419,-0.10473 -0.52917,-0.35829 -0.21497,-0.25356 -0.21497,-0.54571 l 0.87092,-0.98116 q -0.87092,-0.4079 -0.87092,-1.60404 0,-0.84887 0.53468,-1.31189 0.54019,-0.46302 1.56545,-0.46302 0.20395,0 0.52366,0.0441 0.3197,0.0386 0.49058,0.0937 l 1.21819,-0.61185 0.19292,0.23702 -0.76619,0.79375 q 0.36932,0.41342 0.36932,1.21819 z m -0.226,4.24436 q 0,-0.31419 -0.19293,-0.49058 -0.19292,-0.17639 -0.58429,-0.17639 h -2.00642 q -0.23151,0.19844 -0.38034,0.50161 -0.14332,0.30868 -0.14332,0.57326 0,0.47405 0.34176,0.678 0.34175,0.20946 1.04731,0.20946 0.92053,0 1.41662,-0.34175 0.50161,-0.34176 0.50161,-0.95361 z m -1.83555,-2.8553 q 0.60083,0 0.84887,-0.34175 0.25356,-0.34727 0.25356,-1.04731 0,-0.73312 -0.25907,-1.0418 -0.25907,-0.31419 -0.83234,-0.31419 -0.57877,0 -0.84887,0.31419 -0.27009,0.3142 -0.27009,1.0418 0,0.72761 0.26458,1.05834 0.26458,0.33072 0.84336,0.33072 z"
         id="path156" />
      <path
         d="m 301.90659,977.84573 q 0,0.57326 -0.0386,0.82682 0.39687,-0.22599 0.89848,-0.39136 0.50712,-0.16536 0.85438,-0.16536 0.67249,0 1.01424,0.39136 0.34176,0.39136 0.34176,1.1355 v 3.40652 l 0.62838,0.1378 v 0.24805 h -2.23242 v -0.24805 l 0.68902,-0.1378 v -3.34037 q 0,-0.94809 -0.91502,-0.94809 -0.51814,0 -1.24024,0.15985 v 4.12861 l 0.70005,0.1378 v 0.24805 h -2.27101 v -0.24805 l 0.65594,-0.1378 v -7.06659 l -0.7717,-0.13229 v -0.24805 h 1.68672 z"
         id="path158" />
      <path
         d="m 307.59514,983.5453 q -0.52917,0 -0.79375,-0.31419 -0.25907,-0.31419 -0.25907,-0.88195 v -3.63251 h -0.678 v -0.24805 l 0.68902,-0.21497 0.55673,-1.17409 h 0.34727 v 1.17409 h 1.18511 v 0.46302 h -1.18511 v 3.53329 q 0,0.35829 0.15985,0.5402 0.16536,0.1819 0.42995,0.1819 0.3197,0 0.77721,-0.0882 v 0.35829 q -0.19292,0.13229 -0.55673,0.21498 -0.3638,0.0882 -0.67248,0.0882 z"
         id="path160" />
      <path
         d="m 314.12705,982.99409 0.94809,0.14882 v 0.29215 h -2.95452 v -0.29215 l 0.94809,-0.14882 v -6.51538 l -0.94809,-0.14331 v -0.29215 h 2.95452 v 0.29215 l -0.94809,0.14331 z"
         id="path162" />
      <path
         d="m 319.45731,983.04921 q -0.62288,0.49609 -1.45521,0.49609 -2.12218,0 -2.12218,-2.65135 0,-1.3615 0.60082,-2.06706 0.60083,-0.71106 1.7694,-0.71106 0.59532,0 1.20717,0.12678 -0.0331,-0.18191 -0.0331,-0.91502 v -1.34497 l -0.87092,-0.13229 v -0.24805 h 1.78594 v 7.44693 l 0.63941,0.1378 v 0.24805 h -1.45521 z m -2.58521,-2.15526 q 0,1.04731 0.35278,1.56546 0.35278,0.51263 1.08039,0.51263 0.62287,0 1.11896,-0.21498 v -4.09553 q -0.49058,-0.0937 -1.11896,-0.0937 -1.43317,0 -1.43317,2.32613 z"
         id="path164" />
      <path
         d="m 322.54962,980.82781 v 0.0992 q 0,0.76067 0.16537,1.18511 0.17088,0.41892 0.51814,0.63941 0.35278,0.22049 0.92053,0.22049 0.29766,0 0.70556,-0.0496 0.4079,-0.0496 0.67248,-0.11025 v 0.30869 q -0.26458,0.17087 -0.72209,0.29765 -0.452,0.12678 -0.92604,0.12678 -1.20717,0 -1.76941,-0.65043 -0.55672,-0.65044 -0.55672,-2.08911 0,-1.35599 0.56775,-2.02296 0.56775,-0.66697 1.62057,-0.66697 1.98989,0 1.98989,2.25998 v 0.452 z m 1.19614,-2.27101 q -0.57326,0 -0.88194,0.46302 -0.30317,0.46302 -0.30317,1.36702 h 2.21589 q 0,-0.98668 -0.25356,-1.40561 -0.25356,-0.42443 -0.77722,-0.42443 z"
         id="path166" />
      <path
         d="m 328.69017,978.13787 q 0.84887,0 1.24575,0.34727 0.40239,0.34727 0.40239,1.06385 v 3.50022 l 0.64492,0.1378 v 0.24805 h -1.42214 l -0.10473,-0.51814 q -0.62838,0.62838 -1.60404,0.62838 -1.32843,0 -1.32843,-1.5434 0,-0.51815 0.19844,-0.85439 0.20395,-0.34175 0.64492,-0.51814 0.44098,-0.1819 1.27883,-0.19844 l 0.77721,-0.0221 v -0.81028 q 0,-0.53468 -0.19844,-0.78824 -0.19292,-0.25356 -0.60082,-0.25356 -0.55122,0 -1.00873,0.25907 l -0.18741,0.64492 h -0.30868 v -1.12999 q 0.89297,-0.19293 1.57096,-0.19293 z m 0.73312,2.65686 -0.72209,0.0221 q -0.73863,0.0276 -1.00322,0.28664 -0.25907,0.25907 -0.25907,0.8654 0,0.97014 0.78824,0.97014 0.37483,0 0.64492,-0.0827 0.27561,-0.0882 0.55122,-0.22048 z"
         id="path168" />
    </g>
    <g
       id="g94127"
       transform="translate(966,-540)"
       style="stroke:none">
      <rect
         style="fill:#ffffff;fill-opacity:1;stroke:none;stroke-width:0.529167;stroke-linecap:butt;stroke-linejoin:round;stroke-miterlimit:4;stroke-dasharray:none;stroke-opacity:1"
         id="rect88461"
         width="197.99983"
         height="153.49983"
         x="-987.99994"
         y="-563.49994" />
      <rect
         style="fill:url(#linearGradient92115);fill-opacity:1;stroke:none;stroke-width:0.529167;stroke-linecap:butt;stroke-linejoin:round;stroke-miterlimit:4;stroke-dasharray:none;stroke-opacity:1"
         id="rect86347"
         width="178"
         height="133.5"
         x="-978"
         y="-553.5" />
      <circle
         style="fill:#0b1728;fill-opacity:1;stroke:none;stroke-width:0.529167;stroke-linecap:butt;stroke-linejoin:bevel;stroke-miterlimit:4;stroke-dasharray:none;stroke-opacity:1"
         id="path76961"
         cx="-897"
         cy="-492.5"
         r="16.5" />
      <g
         aria-label="Important
Point"
         transform="rotate(90)"
         id="text9553"
         style="font-size:7.05556px;line-height:125%;font-family:'Liberation Serif';-inkscape-font-specification:'Liberation Serif';text-align:center;letter-spacing:0px;word-spacing:0px;text-anchor:middle;stroke-width:0.264583px">
        <path
           d="m -547.40223,894.59018 0.59256,0.093 v 0.18259 h -1.84658 v -0.18259 l 0.59256,-0.093 v -4.07211 l -0.59256,-0.0896 v -0.18259 h 1.84658 v 0.18259 l -0.59256,0.0896 z"
           id="path171" />
        <path
           d="m -545.43852,891.88922 q 0.25838,-0.14814 0.54777,-0.24805 0.28938,-0.0999 0.50987,-0.0999 0.23771,0 0.43753,0.0896 0.20326,0.0896 0.30317,0.28594 0.26527,-0.14814 0.62011,-0.26183 0.35829,-0.11369 0.59256,-0.11369 0.82682,0 0.82682,0.9543 v 2.12907 l 0.41686,0.0861 v 0.15503 h -1.47105 v -0.15503 l 0.48231,-0.0861 v -2.06706 q 0,-0.59256 -0.55122,-0.59256 -0.0896,0 -0.21015,0.0138 -0.11713,0.0138 -0.23771,0.031 -0.11713,0.0172 -0.22738,0.0413 -0.10679,0.0207 -0.17914,0.0344 0.0586,0.18604 0.0586,0.40997 v 2.12907 l 0.48575,0.0861 v 0.15503 h -1.53651 v -0.15503 l 0.47887,-0.0861 v -2.06706 q 0,-0.28594 -0.14814,-0.43753 -0.14469,-0.15503 -0.43753,-0.15503 -0.30317,0 -0.75447,0.0999 v 2.55971 l 0.48576,0.0861 v 0.15503 h -1.46762 v -0.15503 l 0.40997,-0.0861 v -2.75608 l -0.40997,-0.0861 v -0.15503 h 0.94741 z"
           id="path173" />
        <path
           d="m -540.54993,891.86855 -0.36863,-0.0861 v -0.15503 h 0.90951 l 0.007,0.18948 q 0.14469,-0.12402 0.38585,-0.19981 0.2446,-0.0758 0.49609,-0.0758 0.62012,0 0.95774,0.43064 0.34107,0.43064 0.34107,1.23679 0,0.82338 -0.37207,1.27469 -0.36863,0.45131 -1.06798,0.45131 -0.3893,0 -0.7407,-0.0758 0.0207,0.24805 0.0207,0.3893 v 0.87505 l 0.565,0.0827 v 0.16192 h -1.54341 v -0.16192 l 0.40997,-0.0827 z m 2.1084,1.34014 q 0,-0.66146 -0.21704,-0.98185 -0.2136,-0.32384 -0.65113,-0.32384 -0.40307,0 -0.67179,0.11369 v 2.58727 q 0.30661,0.0586 0.67179,0.0586 0.86817,0 0.86817,-1.45383 z"
           id="path175" />
        <path
           d="m -534.28674,893.22936 q 0,1.70533 -1.51585,1.70533 -0.73036,0 -1.10243,-0.43753 -0.37207,-0.43753 -0.37207,-1.2678 0,-0.81993 0.37207,-1.25401 0.37207,-0.43409 1.13,-0.43409 0.73725,0 1.11276,0.4272 0.37552,0.42374 0.37552,1.2609 z m -0.62012,0 q 0,-0.74414 -0.21704,-1.07831 -0.21704,-0.33418 -0.67869,-0.33418 -0.4513,0 -0.65456,0.3204 -0.19982,0.32039 -0.19982,1.09209 0,0.78204 0.20326,1.10932 0.20671,0.32384 0.65112,0.32384 0.45476,0 0.67524,-0.33762 0.22049,-0.33762 0.22049,-1.09554 z"
           id="path177" />
        <path
           d="m -531.73048,891.54126 v 0.87506 h -0.14814 l -0.19982,-0.37896 q -0.17225,0 -0.40996,0.0482 -0.23427,0.0448 -0.40652,0.12058 v 2.41846 l 0.55466,0.0861 v 0.15503 h -1.53652 v -0.15503 l 0.40997,-0.0861 v -2.75608 l -0.40997,-0.0861 v -0.15503 h 0.94396 l 0.031,0.40308 q 0.2067,-0.17226 0.5581,-0.33073 0.35485,-0.15848 0.56155,-0.15848 z"
           id="path179" />
        <path
           d="m -530.51781,894.93469 q -0.33073,0 -0.49609,-0.19637 -0.16192,-0.19638 -0.16192,-0.55122 v -2.27032 h -0.42375 v -0.15503 l 0.43064,-0.13436 0.34796,-0.7338 h 0.21704 v 0.7338 h 0.74069 v 0.28939 h -0.74069 v 2.20831 q 0,0.22393 0.0999,0.33762 0.10336,0.11369 0.26872,0.11369 0.19982,0 0.48576,-0.0551 v 0.22394 q -0.12058,0.0827 -0.34795,0.13435 -0.22738,0.0551 -0.42031,0.0551 z"
           id="path181" />
        <path
           d="m -528.10624,891.55504 q 0.53055,0 0.77859,0.21705 0.2515,0.21704 0.2515,0.6649 v 2.18764 l 0.40307,0.0861 v 0.15503 h -0.88883 l -0.0655,-0.32384 q -0.39274,0.39275 -1.00252,0.39275 -0.83027,0 -0.83027,-0.96463 0,-0.32384 0.12402,-0.53399 0.12747,-0.2136 0.40308,-0.32384 0.27561,-0.11369 0.79926,-0.12402 l 0.48576,-0.0138 V 892.468 q 0,-0.33418 -0.12402,-0.49265 -0.12058,-0.15848 -0.37552,-0.15848 -0.34451,0 -0.63045,0.16192 l -0.11714,0.40308 h -0.19292 v -0.70625 q 0.55811,-0.12058 0.98185,-0.12058 z m 0.4582,1.66054 -0.45131,0.0138 q -0.46164,0.0172 -0.62701,0.17915 -0.16191,0.16192 -0.16191,0.54088 0,0.60633 0.49264,0.60633 0.23427,0 0.40308,-0.0517 0.17226,-0.0551 0.34451,-0.13781 z"
           id="path183" />
        <path
           d="m -525.4604,891.88922 q 0.26527,-0.15159 0.56499,-0.24805 0.29973,-0.0999 0.49954,-0.0999 0.4203,0 0.6339,0.24461 0.2136,0.2446 0.2136,0.70969 v 2.12907 l 0.39274,0.0861 v 0.15503 h -1.39527 v -0.15503 l 0.43064,-0.0861 v -2.06706 q 0,-0.28594 -0.14125,-0.44786 -0.1378,-0.16537 -0.43064,-0.16537 -0.31005,0 -0.76136,0.0999 v 2.58038 l 0.43752,0.0861 v 0.15503 h -1.3987 v -0.15503 l 0.38929,-0.0861 v -2.75608 l -0.38929,-0.0861 v -0.15503 h 0.92328 z"
           id="path185" />
        <path
           d="m -521.89817,894.93469 q -0.33073,0 -0.4961,-0.19637 -0.16191,-0.19638 -0.16191,-0.55122 v -2.27032 h -0.42375 v -0.15503 l 0.43064,-0.13436 0.34795,-0.7338 h 0.21704 v 0.7338 h 0.7407 v 0.28939 h -0.7407 v 2.20831 q 0,0.22393 0.0999,0.33762 0.10335,0.11369 0.26872,0.11369 0.19981,0 0.48576,-0.0551 v 0.22394 q -0.12058,0.0827 -0.34796,0.13435 -0.22738,0.0551 -0.4203,0.0551 z"
           id="path187" />
        <path
           d="m -539.49401,900.43306 q 0,-0.56844 -0.26527,-0.81304 -0.26527,-0.2446 -0.89228,-0.2446 h -0.33762 v 2.18763 h 0.35829 q 0.58222,0 0.85783,-0.26527 0.27905,-0.26527 0.27905,-0.86472 z m -1.49517,1.44005 v 1.53652 l 0.73381,0.093 v 0.18259 h -1.94648 v -0.18259 l 0.54777,-0.093 v -4.07211 l -0.59256,-0.0896 v -0.18259 h 1.74322 q 1.69499,0 1.69499,1.36081 0,0.70969 -0.43064,1.07832 -0.42719,0.36862 -1.2299,0.36862 z"
           id="path189" />
        <path
           d="m -535.26687,902.04881 q 0,1.70533 -1.51585,1.70533 -0.73036,0 -1.10243,-0.43753 -0.37207,-0.43753 -0.37207,-1.2678 0,-0.81993 0.37207,-1.25401 0.37207,-0.43409 1.12999,-0.43409 0.73726,0 1.11277,0.4272 0.37552,0.42374 0.37552,1.2609 z m -0.62012,0 q 0,-0.74414 -0.21704,-1.07831 -0.21704,-0.33418 -0.67869,-0.33418 -0.4513,0 -0.65456,0.3204 -0.19982,0.32039 -0.19982,1.09209 0,0.78204 0.20326,1.10932 0.20671,0.32384 0.65112,0.32384 0.45476,0 0.67524,-0.33762 0.22049,-0.33762 0.22049,-1.09554 z"
           id="path191" />
        <path
           d="m -533.69246,899.3892 q 0,0.15158 -0.11025,0.26182 -0.11024,0.11025 -0.26527,0.11025 -0.15158,0 -0.26183,-0.11025 -0.11024,-0.11024 -0.11024,-0.26182 0,-0.15503 0.11024,-0.26528 0.11025,-0.11024 0.26183,-0.11024 0.15503,0 0.26527,0.11024 0.11025,0.11025 0.11025,0.26528 z m -0.0344,4.05488 0.55466,0.0861 v 0.15503 h -1.67777 v -0.15503 l 0.55122,-0.0861 V 900.688 l -0.4582,-0.0861 v -0.15503 h 1.03009 z"
           id="path193" />
        <path
           d="m -531.92168,900.70867 q 0.26527,-0.15158 0.56499,-0.24805 0.29973,-0.0999 0.49954,-0.0999 0.4203,0 0.6339,0.24461 0.2136,0.2446 0.2136,0.70969 v 2.12907 l 0.39274,0.0861 v 0.15503 h -1.39527 v -0.15503 l 0.43064,-0.0861 v -2.06706 q 0,-0.28594 -0.14125,-0.44786 -0.1378,-0.16537 -0.43064,-0.16537 -0.31005,0 -0.76136,0.0999 v 2.58038 l 0.43752,0.0861 v 0.15503 h -1.3987 v -0.15503 l 0.38929,-0.0861 V 900.688 l -0.38929,-0.0861 v -0.15503 h 0.92328 z"
           id="path195" />
        <path
           d="m -528.35945,903.75414 q -0.33073,0 -0.4961,-0.19637 -0.16192,-0.19638 -0.16192,-0.55122 v -2.27032 h -0.42374 v -0.15503 l 0.43063,-0.13436 0.34796,-0.7338 h 0.21704 v 0.7338 h 0.7407 v 0.28939 h -0.7407 v 2.20831 q 0,0.22393 0.0999,0.33762 0.10335,0.11369 0.26872,0.11369 0.19981,0 0.48575,-0.0551 v 0.22394 q -0.12057,0.0827 -0.34795,0.13435 -0.22738,0.0551 -0.4203,0.0551 z"
           id="path197" />
      </g>
      <g
         aria-label="Fun Fact"
         id="text73098"
         style="font-size:12.7px;line-height:125%;font-family:'Liberation Serif';-inkscape-font-specification:'Liberation Serif';text-align:end;letter-spacing:0px;word-spacing:0px;text-anchor:end;stroke-width:0.264583px">
        <path
           d="m -967.17417,-491.82408 v 3.23701 l 1.38286,0.16743 v 0.32867 h -3.56567 v -0.32867 l 0.98598,-0.16743 v -7.32978 l -1.0666,-0.16123 v -0.32866 h 6.23838 v 1.99057 h -0.40928 l -0.19843,-1.34565 q -0.69453,-0.0868 -2.00918,-0.0868 h -1.35806 v 3.46646 h 2.44946 l 0.19224,-0.99219 h 0.37827 v 2.55488 h -0.37827 l -0.19224,-1.00459 z"
           id="path200" />
        <path
           d="m -960.79936,-489.75289 q 0,1.0666 0.99218,1.0666 0.76895,0 1.43867,-0.19223 v -4.60747 l -0.88056,-0.15503 v -0.27905 h 1.90376 v 5.39502 l 0.73794,0.15502 v 0.27906 h -1.69912 l -0.0496,-0.47129 q -0.44029,0.24184 -1.017,0.42168 -0.5767,0.17363 -0.96738,0.17363 -1.48828,0 -1.48828,-1.71152 v -3.80752 l -0.74414,-0.15503 v -0.27905 h 1.77354 z"
           id="path202" />
        <path
           d="m -954.38115,-493.44879 q 0.47749,-0.27285 1.01699,-0.44648 0.5395,-0.17983 0.89917,-0.17983 0.75654,0 1.14102,0.44028 0.38447,0.44028 0.38447,1.27744 v 3.83233 l 0.70693,0.15502 v 0.27906 h -2.51147 v -0.27906 l 0.77514,-0.15502 v -3.72071 q 0,-0.5147 -0.25424,-0.80615 -0.24805,-0.29766 -0.77515,-0.29766 -0.55811,0 -1.37046,0.17984 v 4.64468 l 0.78755,0.15502 v 0.27906 h -2.51768 v -0.27906 l 0.70074,-0.15502 v -4.96094 l -0.70074,-0.15503 v -0.27905 h 1.66192 z"
           id="path204" />
        <path
           d="m -944.23603,-491.82408 v 3.23701 l 1.38286,0.16743 v 0.32867 h -3.56568 v -0.32867 l 0.98599,-0.16743 v -7.32978 l -1.0666,-0.16123 v -0.32866 h 6.23838 v 1.99057 h -0.40928 l -0.19844,-1.34565 q -0.69453,-0.0868 -2.00918,-0.0868 h -1.35805 v 3.46646 h 2.44946 l 0.19224,-0.99219 h 0.37827 v 2.55488 h -0.37827 l -0.19224,-1.00459 z"
           id="path206" />
        <path
           d="m -936.91865,-494.0503 q 0.95498,0 1.40146,0.39067 0.45269,0.39068 0.45269,1.19683 v 3.93775 l 0.72553,0.15502 v 0.27906 h -1.5999 l -0.11782,-0.58291 q -0.70693,0.70693 -1.80454,0.70693 -1.49448,0 -1.49448,-1.73633 0,-0.58291 0.22324,-0.96118 0.22944,-0.38447 0.72554,-0.58291 0.49609,-0.20464 1.43867,-0.22324 l 0.87436,-0.0248 v -0.91157 q 0,-0.60151 -0.22324,-0.88677 -0.21704,-0.28525 -0.67593,-0.28525 -0.62011,0 -1.13481,0.29146 l -0.21084,0.72553 h -0.34727 v -1.27124 q 1.00459,-0.21704 1.76734,-0.21704 z m 0.82475,2.98897 -0.81235,0.0248 q -0.83096,0.031 -1.12861,0.32246 -0.29146,0.29146 -0.29146,0.97359 0,1.0914 0.88677,1.0914 0.42168,0 0.72554,-0.093 0.31005,-0.0992 0.62011,-0.24804 z"
           id="path208" />
        <path
           d="m -928.91914,-488.44444 q -0.30386,0.22324 -0.83716,0.35347 -0.5333,0.12402 -1.09141,0.12402 -2.83393,0 -2.83393,-3.08198 0,-1.45728 0.71934,-2.23862 0.72553,-0.78755 2.07119,-0.78755 0.83715,0 1.82934,0.19223 v 1.62471 h -0.34106 l -0.26665,-1.02939 q -0.5147,-0.29146 -1.23404,-0.29146 -1.66191,0 -1.66191,2.53008 0,1.31465 0.5023,1.87895 0.50849,0.55811 1.56889,0.55811 0.90537,0 1.5751,-0.20464 z"
           id="path210" />
        <path
           d="m -926.45728,-487.96695 q -0.59531,0 -0.89297,-0.35347 -0.29145,-0.35346 -0.29145,-0.99218 v -4.08658 h -0.76274 v -0.27905 l 0.77514,-0.24184 0.62632,-1.32085 h 0.39067 v 1.32085 h 1.33326 v 0.52089 h -1.33326 v 3.97496 q 0,0.40307 0.17984,0.60771 0.18603,0.20464 0.48369,0.20464 0.35967,0 0.87436,-0.0992 v 0.40308 q -0.21704,0.14882 -0.62631,0.24184 -0.40928,0.0992 -0.75655,0.0992 z"
           id="path212" />
      </g>
      <g
         aria-label="Controversial
Statement"
         transform="scale(-1)"
         id="text73204"
         style="font-size:10.5833px;line-height:125%;font-family:'Liberation Serif';-inkscape-font-specification:'Liberation Serif';text-align:center;letter-spacing:0px;word-spacing:0px;text-anchor:middle;stroke-width:0.264583px">
        <path
           d="m 815.19539,489.60872 q -1.68464,0 -2.62515,-0.91467 -0.94051,-0.91983 -0.94051,-2.57347 0,-1.788 0.90433,-2.70267 0.90434,-0.91984 2.682,-0.91984 1.08004,0 2.32027,0.26355 l 0.031,1.51411 h -0.34106 l -0.15503,-0.89916 q -0.36173,-0.22221 -0.84232,-0.34107 -0.47542,-0.12402 -0.97152,-0.12402 -1.32808,0 -1.93786,0.78031 -0.60978,0.78031 -0.60978,2.41845 0,1.50895 0.63562,2.30476 0.64079,0.79582 1.86035,0.79582 0.58911,0 1.11104,-0.13953 0.52193,-0.14469 0.82682,-0.3824 l 0.1912,-1.03353 h 0.33589 l -0.031,1.6278 q -1.13688,0.32556 -2.44429,0.32556 z"
           id="path215" />
        <path
           d="m 823.1432,487.05075 q 0,2.55797 -2.27375,2.55797 -1.09554,0 -1.65364,-0.65628 -0.55811,-0.65629 -0.55811,-1.90169 0,-1.2299 0.55811,-1.88102 0.5581,-0.65112 1.69498,-0.65112 1.10587,0 1.66914,0.64079 0.56327,0.63562 0.56327,1.89135 z m -0.93017,0 q 0,-1.11621 -0.32556,-1.61747 -0.32556,-0.50126 -1.01802,-0.50126 -0.67696,0 -0.98185,0.48059 -0.29973,0.48059 -0.29973,1.63814 0,1.17305 0.30489,1.66397 0.31006,0.48576 0.97669,0.48576 0.68212,0 1.01285,-0.50643 0.33073,-0.50642 0.33073,-1.6433 z"
           id="path217" />
        <path
           d="m 825.22059,485.04054 q 0.3979,-0.22737 0.84749,-0.37207 0.44958,-0.14986 0.7493,-0.14986 0.63045,0 0.95085,0.3669 0.32039,0.3669 0.32039,1.06453 v 3.1936 l 0.58911,0.12919 v 0.23254 h -2.09289 v -0.23254 l 0.64595,-0.12919 v -3.10058 q 0,-0.42891 -0.21187,-0.67179 -0.2067,-0.24805 -0.64595,-0.24805 -0.46509,0 -1.14205,0.14986 v 3.87056 l 0.65629,0.12919 v 0.23254 h -2.09806 v -0.23254 l 0.58395,-0.12919 v -4.1341 l -0.58395,-0.12919 v -0.23255 h 1.38493 z"
           id="path219" />
        <path
           d="m 830.56391,489.60872 q -0.49609,0 -0.74414,-0.29455 -0.24287,-0.29456 -0.24287,-0.82682 v -3.40547 h -0.63562 v -0.23254 l 0.64595,-0.20154 0.52193,-1.1007 h 0.32556 v 1.1007 h 1.11104 v 0.43408 h -1.11104 v 3.31245 q 0,0.3359 0.14986,0.50643 0.15503,0.17053 0.40308,0.17053 0.29972,0 0.72863,-0.0827 v 0.33589 q -0.18086,0.12403 -0.52193,0.20154 -0.34106,0.0827 -0.63045,0.0827 z"
           id="path221" />
        <path
           d="m 835.20961,484.51861 v 1.31258 h -0.22221 l -0.29972,-0.56844 q -0.25838,0 -0.61495,0.0724 -0.3514,0.0672 -0.60978,0.18086 v 3.62768 l 0.83199,0.12919 v 0.23254 h -2.30476 v -0.23254 l 0.61495,-0.12919 v -4.1341 l -0.61495,-0.12919 v -0.23255 h 1.41593 l 0.0465,0.60461 q 0.31005,-0.25838 0.83715,-0.49609 0.53227,-0.23771 0.84232,-0.23771 z"
           id="path223" />
        <path
           d="m 840.1912,487.05075 q 0,2.55797 -2.27375,2.55797 -1.09554,0 -1.65364,-0.65628 -0.55811,-0.65629 -0.55811,-1.90169 0,-1.2299 0.55811,-1.88102 0.5581,-0.65112 1.69498,-0.65112 1.10587,0 1.66914,0.64079 0.56327,0.63562 0.56327,1.89135 z m -0.93017,0 q 0,-1.11621 -0.32556,-1.61747 -0.32556,-0.50126 -1.01802,-0.50126 -0.67696,0 -0.98185,0.48059 -0.29972,0.48059 -0.29972,1.63814 0,1.17305 0.30489,1.66397 0.31005,0.48576 0.97668,0.48576 0.68212,0 1.01285,-0.50643 0.33073,-0.50642 0.33073,-1.6433 z"
           id="path225" />
        <path
           d="m 843.47264,489.60872 h -0.3824 l -1.99987,-4.59918 -0.49609,-0.12919 v -0.23255 h 2.26342 v 0.23255 l -0.76998,0.13952 1.41593,3.35379 1.35392,-3.36412 -0.76998,-0.12919 v -0.23255 h 1.79834 v 0.23255 l -0.46509,0.10852 z"
           id="path227" />
        <path
           d="m 847.22951,487.06108 v 0.093 q 0,0.71313 0.15503,1.11104 0.16019,0.39274 0.48575,0.59945 0.33073,0.2067 0.863,0.2067 0.27905,0 0.66145,-0.0465 0.38241,-0.0465 0.63045,-0.10335 v 0.28939 q -0.24804,0.16019 -0.67695,0.27905 -0.42375,0.11885 -0.86817,0.11885 -1.13171,0 -1.6588,-0.60978 -0.52193,-0.60978 -0.52193,-1.95853 0,-1.27123 0.53226,-1.89652 0.53227,-0.62528 1.51928,-0.62528 1.86552,0 1.86552,2.11873 v 0.42374 z m 1.12137,-2.12906 q -0.53743,0 -0.82682,0.43408 -0.28422,0.43408 -0.28422,1.28157 h 2.07739 q 0,-0.925 -0.23771,-1.31774 -0.23771,-0.39791 -0.72864,-0.39791 z"
           id="path229" />
        <path
           d="m 854.0146,484.51861 v 1.31258 h -0.22221 l -0.29972,-0.56844 q -0.25838,0 -0.61495,0.0724 -0.35139,0.0672 -0.60978,0.18086 v 3.62768 l 0.83199,0.12919 v 0.23254 h -2.30476 v -0.23254 l 0.61495,-0.12919 v -4.1341 l -0.61495,-0.12919 v -0.23255 h 1.41593 l 0.0465,0.60461 q 0.31006,-0.25838 0.83715,-0.49609 0.53227,-0.23771 0.84233,-0.23771 z"
           id="path231" />
        <path
           d="m 857.84381,488.14112 q 0,0.72347 -0.45991,1.09553 -0.45476,0.37207 -1.34875,0.37207 -0.36174,0 -0.80099,-0.0775 -0.43408,-0.0723 -0.68212,-0.16536 v -1.19373 h 0.23254 l 0.25321,0.67696 q 0.38758,0.3514 1.00769,0.3514 1.00252,0 1.00252,-0.85782 0,-0.63046 -0.79065,-0.89917 l -0.45992,-0.14986 q -0.52193,-0.17053 -0.75964,-0.34623 -0.23771,-0.1757 -0.3669,-0.42892 -0.12919,-0.25838 -0.12919,-0.62011 0,-0.64079 0.43408,-1.00769 0.43925,-0.37207 1.18339,-0.37207 0.53226,0 1.33325,0.1602 v 1.05936 h -0.24288 l -0.21704,-0.56327 q -0.27389,-0.24288 -0.863,-0.24288 -0.41857,0 -0.64078,0.20671 -0.21704,0.2067 -0.21704,0.5581 0,0.29455 0.19637,0.49609 0.20153,0.20154 0.60461,0.3359 0.75964,0.25838 0.99218,0.37723 0.23255,0.11886 0.39274,0.29456 0.16537,0.17053 0.25322,0.39274 0.093,0.22221 0.093,0.54777 z"
           id="path233" />
        <path
           d="m 860.18475,483.06134 q 0,0.22738 -0.16536,0.39274 -0.16537,0.16536 -0.39791,0.16536 -0.22738,0 -0.39274,-0.16536 -0.16537,-0.16536 -0.16537,-0.39274 0,-0.23254 0.16537,-0.39791 0.16536,-0.16536 0.39274,-0.16536 0.23254,0 0.39791,0.16536 0.16536,0.16537 0.16536,0.39791 z m -0.0517,6.0823 0.83199,0.12919 v 0.23254 h -2.51663 v -0.23254 l 0.82682,-0.12919 v -4.1341 l -0.6873,-0.12919 v -0.23255 h 1.54512 z"
           id="path235" />
        <path
           d="m 863.56955,484.53928 q 0.79581,0 1.16788,0.32556 0.37724,0.32556 0.37724,0.99735 v 3.28145 l 0.60461,0.12919 v 0.23254 h -1.33325 l -0.0982,-0.48576 q -0.58911,0.58911 -1.50378,0.58911 -1.2454,0 -1.2454,-1.44693 0,-0.48576 0.18603,-0.80098 0.19121,-0.3204 0.60462,-0.48576 0.41341,-0.17053 1.19888,-0.18604 l 0.72864,-0.0207 v -0.75964 q 0,-0.50126 -0.18603,-0.73897 -0.18087,-0.23771 -0.56328,-0.23771 -0.51676,0 -0.94567,0.24288 l -0.1757,0.60461 h -0.28939 v -1.05936 q 0.83716,-0.18087 1.47278,-0.18087 z m 0.68729,2.4908 -0.67696,0.0207 q -0.69246,0.0258 -0.94051,0.26871 -0.24288,0.24288 -0.24288,0.81132 0,0.9095 0.73898,0.9095 0.35139,0 0.60461,-0.0775 0.25838,-0.0827 0.51676,-0.2067 z"
           id="path237" />
        <path
           d="m 867.76049,489.14364 0.83199,0.12919 v 0.23254 h -2.51664 v -0.23254 l 0.82682,-0.12919 v -6.6249 l -0.82682,-0.12402 v -0.23255 h 1.68465 z"
           id="path239" />
        <path
           d="m 819.55687,500.86898 h 0.33589 l 0.18087,0.93534 q 0.1912,0.24288 0.65629,0.42892 0.47025,0.18603 0.925,0.18603 0.72347,0 1.12655,-0.3669 0.40824,-0.37207 0.40824,-1.02319 0,-0.37207 -0.1602,-0.61495 -0.15503,-0.24288 -0.41341,-0.40824 -0.25321,-0.17053 -0.57877,-0.28422 -0.32556,-0.11886 -0.67179,-0.23771 -0.34107,-0.11886 -0.66663,-0.26355 -0.32556,-0.14469 -0.58394,-0.3669 -0.25321,-0.22221 -0.41341,-0.54777 -0.15503,-0.33073 -0.15503,-0.81132 0,-0.82682 0.62012,-1.29707 0.62011,-0.47026 1.72082,-0.47026 0.83715,0 1.819,0.22221 v 1.44177 h -0.33589 l -0.18087,-0.84749 q -0.5271,-0.38241 -1.30224,-0.38241 -0.69246,0 -1.0852,0.28422 -0.38758,0.27906 -0.38758,0.77515 0,0.33589 0.15503,0.5581 0.1602,0.22221 0.41341,0.38241 0.25838,0.15502 0.58395,0.26871 0.33072,0.11369 0.67179,0.23771 0.34623,0.11886 0.67179,0.27389 0.33073,0.14986 0.58394,0.38757 0.25838,0.23254 0.41341,0.57361 0.1602,0.33589 0.1602,0.83198 0,1.00252 -0.61495,1.55546 -0.61495,0.54777 -1.7725,0.54777 -0.5581,0 -1.12137,-0.0982 -0.56327,-0.0982 -1.00252,-0.26871 z"
           id="path241" />
        <path
           d="m 826.45048,502.83785 q -0.49609,0 -0.74414,-0.29456 -0.24287,-0.29455 -0.24287,-0.82682 v -3.40546 h -0.63562 v -0.23255 l 0.64595,-0.20153 0.52193,-1.10071 h 0.32556 v 1.10071 h 1.11104 v 0.43408 h -1.11104 v 3.31245 q 0,0.33589 0.14986,0.50642 0.15503,0.17053 0.40308,0.17053 0.29972,0 0.72863,-0.0827 v 0.3359 q -0.18086,0.12402 -0.52193,0.20154 -0.34106,0.0827 -0.63045,0.0827 z"
           id="path243" />
        <path
           d="m 830.06782,497.76841 q 0.79582,0 1.16788,0.32556 0.37724,0.32556 0.37724,0.99735 v 3.28144 l 0.60461,0.12919 v 0.23255 h -1.33324 l -0.0982,-0.48576 q -0.58911,0.58911 -1.50378,0.58911 -1.2454,0 -1.2454,-1.44694 0,-0.48575 0.18604,-0.80098 0.1912,-0.32039 0.60461,-0.48576 0.41341,-0.17053 1.19889,-0.18603 l 0.72864,-0.0207 v -0.75964 q 0,-0.50126 -0.18604,-0.73897 -0.18087,-0.23771 -0.56327,-0.23771 -0.51676,0 -0.94568,0.24287 l -0.1757,0.60462 h -0.28938 v -1.05937 q 0.83715,-0.18086 1.47277,-0.18086 z m 0.6873,2.49079 -0.67696,0.0207 q -0.69247,0.0258 -0.94051,0.26872 -0.24288,0.24288 -0.24288,0.81132 0,0.9095 0.73897,0.9095 0.3514,0 0.60461,-0.0775 0.25838,-0.0827 0.51677,-0.2067 z"
           id="path245" />
        <path
           d="m 834.08824,502.83785 q -0.4961,0 -0.74414,-0.29456 -0.24288,-0.29455 -0.24288,-0.82682 v -3.40546 h -0.63562 v -0.23255 l 0.64595,-0.20153 0.52193,-1.10071 h 0.32556 v 1.10071 h 1.11104 v 0.43408 h -1.11104 v 3.31245 q 0,0.33589 0.14987,0.50642 0.15502,0.17053 0.40307,0.17053 0.29972,0 0.72864,-0.0827 v 0.3359 q -0.18087,0.12402 -0.52193,0.20154 -0.34107,0.0827 -0.63045,0.0827 z"
           id="path247" />
        <path
           d="m 836.64621,500.29021 v 0.093 q 0,0.71313 0.15503,1.11104 0.16019,0.39273 0.48575,0.59944 0.33073,0.2067 0.863,0.2067 0.27905,0 0.66145,-0.0465 0.38241,-0.0465 0.63046,-0.10336 v 0.28939 q -0.24805,0.1602 -0.67696,0.27905 -0.42375,0.11886 -0.86817,0.11886 -1.13171,0 -1.6588,-0.60978 -0.52193,-0.60978 -0.52193,-1.95853 0,-1.27124 0.53226,-1.89652 0.53227,-0.62528 1.51928,-0.62528 1.86552,0 1.86552,2.11872 v 0.42375 z m 1.12137,-2.12906 q -0.53743,0 -0.82682,0.43408 -0.28422,0.43408 -0.28422,1.28157 h 2.07739 q 0,-0.92501 -0.23771,-1.31775 -0.23771,-0.3979 -0.72864,-0.3979 z"
           id="path249" />
        <path
           d="m 841.68465,498.26967 q 0.38757,-0.22221 0.82165,-0.37207 0.43408,-0.14986 0.76481,-0.14986 0.35656,0 0.65629,0.13435 0.30489,0.13436 0.45475,0.42892 0.39791,-0.22221 0.93017,-0.39274 0.53743,-0.17053 0.88883,-0.17053 1.24023,0 1.24023,1.43143 v 3.19359 l 0.62529,0.12919 v 0.23255 h -2.20658 v -0.23255 l 0.72347,-0.12919 v -3.10057 q 0,-0.88884 -0.82682,-0.88884 -0.13436,0 -0.31523,0.0207 -0.1757,0.0207 -0.35656,0.0465 -0.1757,0.0258 -0.34107,0.062 -0.16019,0.031 -0.26871,0.0517 0.0879,0.27905 0.0879,0.61495 v 3.19359 l 0.72863,0.12919 v 0.23255 h -2.30476 v -0.23255 l 0.7183,-0.12919 v -3.10057 q 0,-0.42892 -0.22221,-0.65629 -0.21704,-0.23255 -0.65629,-0.23255 -0.45475,0 -1.13171,0.14987 v 3.83954 l 0.72864,0.12919 v 0.23255 h -2.20141 v -0.23255 l 0.61495,-0.12919 v -4.1341 l -0.61495,-0.12919 v -0.23254 h 1.4211 z"
           id="path251" />
        <path
           d="m 849.57561,500.29021 v 0.093 q 0,0.71313 0.15503,1.11104 0.1602,0.39273 0.48576,0.59944 0.33073,0.2067 0.86299,0.2067 0.27905,0 0.66146,-0.0465 0.3824,-0.0465 0.63045,-0.10336 v 0.28939 q -0.24805,0.1602 -0.67696,0.27905 -0.42375,0.11886 -0.86816,0.11886 -1.13171,0 -1.65881,-0.60978 -0.52193,-0.60978 -0.52193,-1.95853 0,-1.27124 0.53227,-1.89652 0.53226,-0.62528 1.51928,-0.62528 1.86551,0 1.86551,2.11872 v 0.42375 z m 1.12138,-2.12906 q -0.53744,0 -0.82682,0.43408 -0.28422,0.43408 -0.28422,1.28157 h 2.07738 q 0,-0.92501 -0.23771,-1.31775 -0.23771,-0.3979 -0.72863,-0.3979 z"
           id="path253" />
        <path
           d="m 854.60371,498.26967 q 0.39791,-0.22738 0.8475,-0.37207 0.44958,-0.14986 0.7493,-0.14986 0.63045,0 0.95085,0.3669 0.32039,0.3669 0.32039,1.06453 v 3.19359 l 0.58911,0.12919 v 0.23255 h -2.09289 v -0.23255 l 0.64595,-0.12919 v -3.10057 q 0,-0.42892 -0.21187,-0.6718 -0.20671,-0.24804 -0.64595,-0.24804 -0.46509,0 -1.14205,0.14986 v 3.87055 l 0.65629,0.12919 v 0.23255 h -2.09806 v -0.23255 l 0.58394,-0.12919 v -4.1341 l -0.58394,-0.12919 v -0.23254 h 1.38493 z"
           id="path255" />
        <path
           d="m 859.94704,502.83785 q -0.49609,0 -0.74414,-0.29456 -0.24288,-0.29455 -0.24288,-0.82682 v -3.40546 h -0.63561 v -0.23255 l 0.64595,-0.20153 0.52193,-1.10071 h 0.32556 v 1.10071 h 1.11104 v 0.43408 h -1.11104 v 3.31245 q 0,0.33589 0.14986,0.50642 0.15503,0.17053 0.40308,0.17053 0.29972,0 0.72863,-0.0827 v 0.3359 q -0.18087,0.12402 -0.52193,0.20154 -0.34106,0.0827 -0.63045,0.0827 z"
           id="path257" />
      </g>
      <path
         style="fill:#f2f2f2;fill-rule:evenodd;stroke:none;stroke-width:0.529167;stroke-linecap:butt;stroke-linejoin:round;stroke-miterlimit:4;stroke-dasharray:none;stroke-opacity:1"
         d="m -899,-495 -1,15 h 6 l -1,-15 z"
         id="path76192" />
      <circle
         style="fill:#f2f2f2;fill-opacity:1;stroke:none;stroke-width:0.529167;stroke-linecap:butt;stroke-linejoin:bevel;stroke-miterlimit:4;stroke-dasharray:none;stroke-opacity:1"
         id="path76857"
         cx="-897"
         cy="-502"
         r="3" />
      <path
         style="fill:#162d50;fill-rule:evenodd;stroke:none;stroke-width:0.264583px;stroke-linecap:butt;stroke-linejoin:miter;stroke-opacity:1"
         d="m -975,-440 75,-30 90,45 z"
         id="path90982"
         sodipodi:nodetypes="cccc" />
      <path
         style="fill:#3771c8;fill-rule:evenodd;stroke:none;stroke-width:0.264583px;stroke-linecap:butt;stroke-linejoin:miter;stroke-opacity:1"
         d="m -800,-445 -30,-15 -145,40 h 175 z"
         id="path90535"
         sodipodi:nodetypes="ccccc" />
      <path
         style="fill:#214478;fill-rule:evenodd;stroke:none;stroke-width:0.264583px;stroke-linecap:butt;stroke-linejoin:miter;stroke-opacity:1"
         d="m -978,-460 18,-5 80,45 h -98 z"
         id="path90337" />
      <g
         aria-label="The Big Picture"
         id="text73312"
         style="font-size:22.5778px;line-height:125%;font-family:'Liberation Serif';-inkscape-font-specification:'Liberation Serif';text-align:center;letter-spacing:0px;word-spacing:0px;text-anchor:middle;fill:#ffffff;stroke-width:0.264583px">
        <path
           d="m -956.82157,-430 v -0.58429 l 2.34818,-0.29766 v -12.95357 h -0.56224 q -2.78915,0 -3.81442,0.22049 l -0.29765,2.30408 h -0.73863 v -3.47266 h 13.00869 v 3.47266 h -0.74965 l -0.29766,-2.30408 q -0.33073,-0.0772 -1.44418,-0.13229 -1.11346,-0.0661 -2.43638,-0.0661 h -0.54019 v 12.93152 l 2.34818,0.29766 V -430 Z"
           id="path260" />
        <path
           d="m -942.90888,-441.17866 q 0,1.14653 -0.0772,1.65365 0.79375,-0.452 1.79696,-0.78273 1.01424,-0.33073 1.70877,-0.33073 1.34497,0 2.02847,0.78273 0.68351,0.78273 0.68351,2.27101 v 6.81303 l 1.25677,0.27561 V -430 h -4.46485 v -0.49609 l 1.37804,-0.27561 v -6.68074 q 0,-1.89618 -1.83003,-1.89618 -1.03629,0 -2.48047,0.3197 v 8.25722 l 1.40008,0.27561 V -430 h -4.54201 v -0.49609 l 1.31189,-0.27561 v -14.13318 l -1.5434,-0.26458 v -0.49609 h 3.37344 z"
           id="path262" />
        <path
           d="m -932.34759,-435.2145 v 0.19844 q 0,1.52135 0.33073,2.37022 0.34176,0.83785 1.03629,1.27882 0.70555,0.44098 1.84106,0.44098 0.59531,0 1.41111,-0.0992 0.8158,-0.0992 1.34497,-0.22049 v 0.61736 q -0.52917,0.34176 -1.44419,0.59532 -0.90399,0.25356 -1.85208,0.25356 -2.41433,0 -3.53881,-1.30087 -1.11346,-1.30087 -1.11346,-4.17822 0,-2.71198 1.13551,-4.04592 1.1355,-1.33395 3.24115,-1.33395 3.97978,0 3.97978,4.51997 v 0.904 z m 2.39228,-4.54202 q -1.14653,0 -1.76389,0.92604 -0.60634,0.92604 -0.60634,2.73403 h 4.43178 q 0,-1.97335 -0.50712,-2.8112 -0.50712,-0.84887 -1.55443,-0.84887 z"
           id="path264" />
        <path
           d="m -908.98706,-441.20071 q 0,-1.35599 -0.84888,-1.97335 -0.84887,-0.61736 -2.75607,-0.61736 h -2.28204 v 5.58933 h 2.41433 q 1.78594,0 2.62378,-0.70556 0.84888,-0.70555 0.84888,-2.29306 z m 1.11345,6.98942 q 0,-1.55443 -1.03628,-2.27101 -1.03629,-0.7276 -3.31832,-0.7276 h -2.64584 v 6.21771 q 1.52136,0.0661 3.24115,0.0661 1.88516,0 2.82223,-0.79375 0.93706,-0.80478 0.93706,-2.4915 z M -918.89792,-430 v -0.58429 l 1.89618,-0.29766 v -13.03074 l -1.89618,-0.28663 v -0.58429 h 6.7579 q 2.8112,0 4.11207,0.83785 1.30087,0.82682 1.30087,2.63481 0,1.30087 -0.80477,2.21589 -0.79375,0.91502 -2.23794,1.2237 1.9954,0.20946 3.08681,1.16858 1.09141,0.94809 1.09141,2.44739 0,2.1277 -1.47726,3.23013 -1.46624,1.09141 -4.28846,1.09141 L -916.0757,-430 Z"
           id="path266" />
        <path
           d="m -900.31092,-443.74732 q 0,0.48507 -0.35278,0.83785 -0.35278,0.35277 -0.84887,0.35277 -0.48507,0 -0.83785,-0.35277 -0.35278,-0.35278 -0.35278,-0.83785 0,-0.4961 0.35278,-0.84888 0.35278,-0.35277 0.83785,-0.35277 0.49609,0 0.84887,0.35277 0.35278,0.35278 0.35278,0.84888 z m -0.11025,12.97562 1.77492,0.27561 V -430 h -5.36884 v -0.49609 l 1.76389,-0.27561 v -8.81946 l -1.46624,-0.2756 v -0.4961 h 3.29627 z"
           id="path268" />
        <path
           d="m -888.62515,-437.08864 q 0,1.78594 -1.06936,2.70096 -1.06936,0.91502 -3.07578,0.91502 -0.904,0 -1.6757,-0.16536 l -0.69453,1.44418 q 0.0331,0.18741 0.42995,0.35278 0.39687,0.16536 0.99219,0.16536 h 3.06476 q 1.67569,0 2.48047,0.72761 0.8158,0.7276 0.8158,2.00642 0,1.15756 -0.65044,2.01745 -0.63941,0.8599 -1.88516,1.32292 -1.24574,0.47405 -3.02066,0.47405 -2.11667,0 -3.23012,-0.65044 -1.10243,-0.65043 -1.10243,-1.85208 0,-0.58429 0.39687,-1.15756 0.39688,-0.56224 1.45521,-1.32291 -0.62839,-0.20947 -1.05833,-0.71658 -0.42995,-0.50712 -0.42995,-1.09141 l 1.74184,-1.96233 q -1.74184,-0.8158 -1.74184,-3.20808 0,-1.69774 1.06936,-2.62378 1.08038,-0.92605 3.1309,-0.92605 0.4079,0 1.04731,0.0882 0.63941,0.0772 0.98117,0.18741 l 2.43637,-1.2237 0.38585,0.47405 -1.53238,1.5875 q 0.73863,0.82682 0.73863,2.43637 z m -0.452,8.48873 q 0,-0.62839 -0.38585,-0.98117 -0.38585,-0.35277 -1.16857,-0.35277 h -4.01286 q -0.46302,0.39687 -0.76067,1.00321 -0.28664,0.61736 -0.28664,1.14653 0,0.94809 0.68351,1.35599 0.68351,0.41892 2.09462,0.41892 1.84106,0 2.83325,-0.6835 1.00321,-0.68351 1.00321,-1.90721 z m -3.67109,-5.7106 q 1.20165,0 1.69774,-0.68351 0.50712,-0.69453 0.50712,-2.09462 0,-1.46623 -0.51814,-2.08359 -0.51815,-0.62839 -1.66467,-0.62839 -1.15756,0 -1.69775,0.62839 -0.54019,0.62838 -0.54019,2.08359 0,1.45521 0.52917,2.11667 0.52916,0.66146 1.68672,0.66146 z"
           id="path270" />
        <path
           d="m -871.82409,-440.40696 q 0,-1.81901 -0.84887,-2.60173 -0.84888,-0.78273 -2.8553,-0.78273 h -1.08038 v 7.00044 h 1.14652 q 1.86311,0 2.74506,-0.84887 0.89297,-0.84887 0.89297,-2.76711 z m -4.78455,4.60817 v 4.91684 l 2.34818,0.29766 V -430 h -6.22874 v -0.58429 l 1.75286,-0.29766 v -13.03074 l -1.89618,-0.28663 v -0.58429 h 5.5783 q 5.42397,0 5.42397,4.35461 0,2.27101 -1.37804,3.45061 -1.36702,1.1796 -3.93568,1.1796 z"
           id="path272" />
        <path
           d="m -864.54804,-443.74732 q 0,0.48507 -0.35278,0.83785 -0.35277,0.35277 -0.84887,0.35277 -0.48507,0 -0.83785,-0.35277 -0.35277,-0.35278 -0.35277,-0.83785 0,-0.4961 0.35277,-0.84888 0.35278,-0.35277 0.83785,-0.35277 0.4961,0 0.84887,0.35277 0.35278,0.35278 0.35278,0.84888 z m -0.11024,12.97562 1.77491,0.27561 V -430 h -5.36884 v -0.49609 l 1.76389,-0.27561 v -8.81946 l -1.46623,-0.2756 v -0.4961 h 3.29627 z"
           id="path274" />
        <path
           d="m -853.12685,-430.62839 q -0.54019,0.39688 -1.48828,0.62839 -0.94809,0.22049 -1.94028,0.22049 -5.03811,0 -5.03811,-5.47909 0,-2.59071 1.27882,-3.97978 1.28984,-1.40009 3.68212,-1.40009 1.48828,0 3.25217,0.34176 v 2.88837 h -0.60633 l -0.47405,-1.83004 q -0.91502,-0.51814 -2.19384,-0.51814 -2.95451,0 -2.95451,4.49792 0,2.33716 0.89297,3.34037 0.90399,0.99219 2.78915,0.99219 1.60955,0 2.80017,-0.36381 z"
           id="path276" />
        <path
           d="m -848.75019,-429.77951 q -1.05834,0 -1.58751,-0.62839 -0.51814,-0.62839 -0.51814,-1.76389 v -7.26503 h -1.35599 v -0.49609 l 1.37804,-0.42995 1.11346,-2.34818 h 0.69453 v 2.34818 h 2.37023 v 0.92604 h -2.37023 v 7.06659 q 0,0.71658 0.3197,1.08038 0.33073,0.36381 0.8599,0.36381 0.63941,0 1.55443,-0.17639 v 0.71658 q -0.38585,0.26458 -1.11346,0.42995 -0.7276,0.17639 -1.34496,0.17639 z"
           id="path278" />
        <path
           d="m -842.70887,-432.95452 q 0,1.89619 1.76389,1.89619 1.36702,0 2.55764,-0.34176 v -8.19107 l -1.56545,-0.2756 v -0.4961 h 3.38446 v 9.59116 l 1.3119,0.27561 V -430 h -3.02066 l -0.0882,-0.83785 q -0.78273,0.42995 -1.80799,0.74966 -1.02526,0.30868 -1.71979,0.30868 -2.64584,0 -2.64584,-3.04272 v -6.76893 l -1.32291,-0.2756 v -0.4961 h 3.15295 z"
           id="path280" />
        <path
           d="m -827.55043,-440.63847 v 2.80018 h -0.47405 l -0.63941,-1.21267 q -0.55121,0 -1.31189,0.15434 -0.74966,0.14331 -1.30087,0.38585 v 7.73907 l 1.77491,0.27561 V -430 h -4.91684 v -0.49609 l 1.31189,-0.27561 v -8.81946 l -1.31189,-0.2756 v -0.4961 h 3.02066 l 0.0992,1.28985 q 0.66146,-0.55122 1.78594,-1.05834 1.1355,-0.50712 1.79696,-0.50712 z"
           id="path282" />
        <path
           d="m -824.48568,-435.2145 v 0.19844 q 0,1.52135 0.33073,2.37022 0.34175,0.83785 1.03629,1.27882 0.70555,0.44098 1.84106,0.44098 0.59531,0 1.41111,-0.0992 0.8158,-0.0992 1.34497,-0.22049 v 0.61736 q -0.52917,0.34176 -1.44419,0.59532 -0.90399,0.25356 -1.85208,0.25356 -2.41433,0 -3.53881,-1.30087 -1.11346,-1.30087 -1.11346,-4.17822 0,-2.71198 1.13551,-4.04592 1.1355,-1.33395 3.24115,-1.33395 3.97978,0 3.97978,4.51997 v 0.904 z m 2.39228,-4.54202 q -1.14653,0 -1.76389,0.92604 -0.60634,0.92604 -0.60634,2.73403 h 4.43178 q 0,-1.97335 -0.50712,-2.8112 -0.50712,-0.84887 -1.55443,-0.84887 z"
           id="path284" />
      </g>
    </g>
    <g
       aria-label="Deep"
       id="text9659"
       style="font-size:88.1944px;line-height:125%;font-family:'Liberation Serif';-inkscape-font-specification:'Liberation Serif';letter-spacing:0px;word-spacing:0px;stroke-width:0.264583px">
      <path
         d="m -138.84036,1240.7168 q 0,-12.1009 -6.54568,-18.3451 -6.50261,-6.2442 -18.6035,-6.2442 h -7.75146 v 49.8246 q 5.16764,0.3445 12.27314,0.3445 10.59367,0 15.58905,-6.2442 5.03845,-6.2442 5.03845,-19.3356 z m -22.39311,-28.4651 q 15.97662,0 23.68502,7.1486 7.7084,7.1055 7.7084,21.4027 0,14.4693 -7.45002,21.9194 -7.40695,7.45 -22.17779,7.45 l -20.58443,-0.1723 h -7.40695 v -2.2824 l 7.40695,-1.1627 v -50.9012 l -7.40695,-1.1197 v -2.2824 z"
         id="path287" />
      <path
         d="m -115.11228,1249.631 v 0.7752 q 0,5.9427 1.29191,9.2586 1.33498,3.2729 4.04799,4.9954 2.75607,1.7226 7.19163,1.7226 2.32544,0 5.512152,-0.3876 3.186712,-0.3876 5.253768,-0.8613 v 2.4116 q -2.067056,1.335 -5.641341,2.3254 -3.531219,0.9905 -7.234699,0.9905 -9.43094,0 -13.82344,-5.0815 -4.34943,-5.0815 -4.34943,-16.3211 0,-10.5937 4.43556,-15.8044 4.43556,-5.2107 12.66072,-5.2107 15.545986,0 15.545986,17.6561 v 3.5312 z m 9.34482,-17.7422 q -4.47862,0 -6.89019,3.6173 -2.3685,3.6174 -2.3685,10.6798 h 17.311597 q 0,-7.7084 -1.980929,-10.9812 -1.980928,-3.3159 -6.071978,-3.3159 z"
         id="path289" />
      <path
         d="m -75.967401,1249.631 v 0.7752 q 0,5.9427 1.29191,9.2586 1.334974,3.2729 4.047985,4.9954 2.756075,1.7226 7.191633,1.7226 2.325438,0 5.51215,-0.3876 3.186711,-0.3876 5.253767,-0.8613 v 2.4116 q -2.067056,1.335 -5.641341,2.3254 -3.53122,0.9905 -7.234696,0.9905 -9.430944,0 -13.823438,-5.0815 -4.349431,-5.0815 -4.349431,-16.3211 0,-10.5937 4.435558,-15.8044 4.435558,-5.2107 12.660719,-5.2107 15.545985,0 15.545985,17.6561 v 3.5312 z m 9.344816,-17.7422 q -4.478622,0 -6.890187,3.6173 -2.368502,3.6174 -2.368502,10.6798 h 17.311595 q 0,-7.7084 -1.980928,-10.9812 -1.980929,-3.3159 -6.071978,-3.3159 z"
         id="path291" />
      <path
         d="m -41.473396,1232.5347 -4.607812,-1.0766 v -1.9378 h 11.368809 l 0.08613,2.3685 q 1.808674,-1.5503 4.823131,-2.4977 3.057521,-0.9474 6.201169,-0.9474 7.75146,0 11.9717,5.3829 4.2633034,5.383 4.2633034,15.4599 0,10.2922 -4.6508764,15.9336 -4.607813,5.6413 -13.349738,5.6413 -4.866195,0 -9.258689,-0.9474 0.258382,3.1006 0.258382,4.8662 v 10.9382 l 7.062442,1.0335 v 2.024 h -19.292524 v -2.024 l 5.124576,-1.0335 z m 26.354967,16.7518 q 0,-8.2682 -2.713012,-12.2731 -2.669947,-4.048 -8.139033,-4.048 -5.03845,0 -8.397416,1.4211 v 32.3408 q 3.832667,0.7321 8.397416,0.7321 10.852045,0 10.852045,-18.1729 z"
         id="path293" />
    </g>
    <g
       aria-label="Thought"
       id="text97889"
       style="font-size:88.1944px;line-height:125%;font-family:'Liberation Serif';-inkscape-font-specification:'Liberation Serif';letter-spacing:0px;word-spacing:0px;stroke-width:0.264583px">
      <path
         d="m 263.56506,1270.0001 v -2.2824 l 9.17256,-1.1627 v -50.5998 h -2.19625 q -10.89511,0 -14.90003,0.8613 l -1.16272,9.0003 h -2.88526 v -13.5651 h 50.81513 v 13.5651 h -2.92833 l -1.16272,-9.0003 q -1.29191,-0.3015 -5.64134,-0.5168 -4.34943,-0.2584 -9.51707,-0.2584 h -2.11012 v 50.5137 l 9.17256,1.1627 v 2.2824 z"
         id="path296" />
      <path
         d="m 317.91141,1226.3336 q 0,4.4786 -0.30145,6.4595 3.10059,-1.7656 7.01938,-3.0575 3.96186,-1.2919 6.67487,-1.2919 5.25377,0 7.92371,3.0575 2.66995,3.0575 2.66995,8.8711 v 26.6134 l 4.90926,1.0766 v 1.9378 h -17.44079 v -1.9378 l 5.38296,-1.0766 v -26.0966 q 0,-7.407 -7.14857,-7.407 -4.04798,0 -9.68932,1.2489 v 32.2547 l 5.46908,1.0766 v 1.9378 h -17.74223 v -1.9378 l 5.12458,-1.0766 v -55.2077 l -6.02892,-1.0335 v -1.9379 h 13.17749 z"
         id="path298" />
      <path
         d="m 388.70808,1249.5449 q 0,21.3165 -18.94801,21.3165 -9.1295,0 -13.78038,-5.4691 -4.65088,-5.4691 -4.65088,-15.8474 0,-10.2492 4.65088,-15.6752 4.65088,-5.426 14.12489,-5.426 9.21562,0 13.90956,5.3399 4.69394,5.2968 4.69394,15.7613 z m -7.75146,0 q 0,-9.3018 -2.71301,-13.479 -2.71301,-4.1771 -8.48354,-4.1771 -5.64134,0 -8.1821,4.0049 -2.49769,4.0049 -2.49769,13.6512 0,9.7754 2.54075,13.8665 2.58382,4.048 8.13904,4.048 5.6844,0 8.44048,-4.2203 2.75607,-4.2202 2.75607,-13.6942 z"
         id="path300" />
      <path
         d="m 405.54598,1258.4591 q 0,7.4069 6.89018,7.4069 5.3399,0 9.99077,-1.335 v -31.9963 l -6.11504,-1.0766 v -1.9378 h 13.22055 v 37.4654 l 5.12458,1.0766 v 1.9378 h -11.79945 l -0.34451,-3.2728 q -3.05752,1.6795 -7.06244,2.9283 -4.00492,1.2058 -6.71793,1.2058 -10.33528,0 -10.33528,-11.8856 v -26.4411 l -5.16764,-1.0766 v -1.9378 h 12.31621 z"
         id="path302" />
      <path
         d="m 473.62964,1242.3102 q 0,6.9763 -4.17718,10.5506 -4.17717,3.5743 -12.01476,3.5743 -3.53122,0 -6.54568,-0.646 l -2.71301,5.6414 q 0.12919,0.732 1.67948,1.378 1.55029,0.6459 3.87573,0.6459 h 11.9717 q 6.54568,0 9.68933,2.8422 3.18671,2.8422 3.18671,7.8376 0,4.5217 -2.54076,7.8807 -2.49769,3.359 -7.36388,5.1676 -4.8662,1.8518 -11.79945,1.8518 -8.26822,0 -12.61765,-2.5408 -4.30637,-2.5407 -4.30637,-7.2347 0,-2.2824 1.55029,-4.5217 1.55029,-2.1962 5.68441,-5.1676 -2.45463,-0.8182 -4.13412,-2.7992 -1.67948,-1.9809 -1.67948,-4.2633 l 6.80406,-7.6653 q -6.80406,-3.1867 -6.80406,-12.5315 0,-6.6318 4.17718,-10.2492 4.22024,-3.6173 12.23008,-3.6173 1.59335,0 4.09105,0.3445 2.49769,0.3014 3.83266,0.7321 l 9.51707,-4.7801 1.50723,1.8517 -5.98585,6.2012 q 2.88527,3.2298 2.88527,9.5171 z m -1.76561,33.159 q 0,-2.4546 -1.50723,-3.8327 -1.50723,-1.378 -4.56475,-1.378 h -15.67518 q -1.80867,1.5503 -2.97139,3.9188 -1.11965,2.4116 -1.11965,4.4786 0,3.7035 2.66994,5.2969 2.66995,1.6364 8.1821,1.6364 7.19163,0 11.06736,-2.67 3.9188,-2.6699 3.9188,-7.45 z m -14.3402,-22.307 q 4.69394,0 6.6318,-2.6699 1.98093,-2.713 1.98093,-8.1821 0,-5.7275 -2.02399,-8.1391 -2.02399,-2.4546 -6.50262,-2.4546 -4.52168,0 -6.6318,2.4546 -2.11012,2.4547 -2.11012,8.1391 0,5.6844 2.06705,8.2682 2.06706,2.5838 6.58875,2.5838 z"
         id="path304" />
      <path
         d="m 494.3002,1226.3336 q 0,4.4786 -0.30145,6.4595 3.10059,-1.7656 7.01938,-3.0575 3.96186,-1.2919 6.67487,-1.2919 5.25377,0 7.92372,3.0575 2.66995,3.0575 2.66995,8.8711 v 26.6134 l 4.90925,1.0766 v 1.9378 h -17.44078 v -1.9378 l 5.38296,-1.0766 v -26.0966 q 0,-7.407 -7.14857,-7.407 -4.04799,0 -9.68933,1.2489 v 32.2547 l 5.46909,1.0766 v 1.9378 h -17.74224 v -1.9378 l 5.12458,-1.0766 v -55.2077 l -6.02891,-1.0335 v -1.9379 h 13.17748 z"
         id="path306" />
      <path
         d="m 538.74191,1270.8614 q -4.13411,0 -6.20117,-2.4546 -2.02399,-2.4547 -2.02399,-6.8902 v -28.379 h -5.29683 v -1.9378 l 5.38295,-1.6795 4.34944,-9.1726 h 2.71301 v 9.1726 h 9.25869 v 3.6173 h -9.25869 v 27.6038 q 0,2.7992 1.24884,4.2203 1.29191,1.4211 3.35897,1.4211 2.49769,0 6.07198,-0.689 v 2.7991 q -1.50723,1.0335 -4.34943,1.6795 -2.84221,0.689 -5.25377,0.689 z"
         id="path308" />
    </g>
  </g>
  <metadata
     id="metadata109153">
    <rdf:RDF>
      <cc:Work
         rdf:about="">
        <dc:title>Big Ideas</dc:title>
        <dc:date>2021-11-12</dc:date>
        <dc:creator>
          <cc:Agent>
            <dc:title>Guillaume Savaton</dc:title>
          </cc:Agent>
        </dc:creator>
        <dc:language>en</dc:language>
        <cc:license
           rdf:resource="http://creativecommons.org/licenses/by-sa/4.0/" />
      </cc:Work>
      <cc:License
         rdf:about="http://creativecommons.org/licenses/by-sa/4.0/">
        <cc:permits
           rdf:resource="http://creativecommons.org/ns#Reproduction" />
        <cc:permits
           rdf:resource="http://creativecommons.org/ns#Distribution" />
        <cc:requires
           rdf:resource="http://creativecommons.org/ns#Notice" />
        <cc:requires
           rdf:resource="http://creativecommons.org/ns#Attribution" />
        <cc:permits
           rdf:resource="http://creativecommons.org/ns#DerivativeWorks" />
        <cc:requires
           rdf:resource="http://creativecommons.org/ns#ShareAlike" />
      </cc:License>
    </rdf:RDF>
  </metadata>
</svg>
